<mxfile host="app.diagrams.net" modified="2021-04-15T04:08:09.346Z" agent="5.0 (Windows NT 10.0; Win64; x64) AppleWebKit/537.36 (KHTML, like Gecko) Chrome/88.0.4324.146 Safari/537.36" etag="oeei-3j1WtjNMBBEUakg" version="14.5.3" type="github" pages="3">
  <diagram id="g7usEjnd5ee0Ly5ZbJtn" name="friction circle">
    <mxGraphModel dx="1778" dy="884" grid="1" gridSize="10" guides="1" tooltips="1" connect="1" arrows="1" fold="1" page="1" pageScale="1" pageWidth="850" pageHeight="1100" math="0" shadow="0">
      <root>
        <mxCell id="0" />
        <mxCell id="1" parent="0" />
        <mxCell id="zeGIx0DeRolgVq0zqXq3-1" value="" style="endArrow=classic;startArrow=classic;" parent="1" edge="1">
          <mxGeometry width="50" height="50" relative="1" as="geometry">
            <mxPoint x="320" y="320" as="sourcePoint" />
            <mxPoint x="570" y="320" as="targetPoint" />
          </mxGeometry>
        </mxCell>
        <mxCell id="zeGIx0DeRolgVq0zqXq3-2" value="" style="endArrow=classic;startArrow=classic;" parent="1" edge="1">
          <mxGeometry width="50" height="50" relative="1" as="geometry">
            <mxPoint x="440" y="440" as="sourcePoint" />
            <mxPoint x="440" y="200" as="targetPoint" />
          </mxGeometry>
        </mxCell>
        <mxCell id="zeGIx0DeRolgVq0zqXq3-3" value="" style="ellipse;fillColor=none;aspect=fixed;" parent="1" vertex="1">
          <mxGeometry x="373" y="253" width="134" height="134" as="geometry" />
        </mxCell>
        <mxCell id="zeGIx0DeRolgVq0zqXq3-5" value="Fx" style="text;" parent="1" vertex="1">
          <mxGeometry x="450" y="200" width="40" height="30" as="geometry" />
        </mxCell>
        <mxCell id="zeGIx0DeRolgVq0zqXq3-6" value="Fy" style="text;" parent="1" vertex="1">
          <mxGeometry x="550" y="290" width="40" height="30" as="geometry" />
        </mxCell>
        <mxCell id="zeGIx0DeRolgVq0zqXq3-8" value="" style="verticalLabelPosition=bottom;verticalAlign=top;shape=mxgraph.basic.arc;startAngle=0.0016752533177237015;endAngle=0.5015914963824541;strokeWidth=3;fontColor=#ffffff;fillColor=none;strokeColor=#FF33FF;" parent="1" vertex="1">
          <mxGeometry x="373" y="253" width="133.858" height="133.858" as="geometry" />
        </mxCell>
        <mxCell id="zeGIx0DeRolgVq0zqXq3-10" value="" style="shape=ellipse;fillColor=#0065FF;strokeColor=none;" parent="1" vertex="1">
          <mxGeometry x="435" y="382" width="10" height="10" as="geometry" />
        </mxCell>
        <mxCell id="zeGIx0DeRolgVq0zqXq3-11" value="" style="shape=ellipse;fillColor=#0065FF;strokeColor=none;" parent="1" vertex="1">
          <mxGeometry x="501.93000000000006" y="315" width="10" height="10" as="geometry" />
        </mxCell>
        <mxCell id="zeGIx0DeRolgVq0zqXq3-14" value="" style="shape=ellipse;fillColor=#0065FF;strokeColor=none;" parent="1" vertex="1">
          <mxGeometry x="434.93" y="249" width="10" height="10" as="geometry" />
        </mxCell>
        <mxCell id="zeGIx0DeRolgVq0zqXq3-16" value="" style="endArrow=classic;endFill=0;" parent="1" edge="1">
          <mxGeometry width="50" height="50" relative="1" as="geometry">
            <mxPoint x="410" y="230" as="sourcePoint" />
            <mxPoint x="434" y="250" as="targetPoint" />
          </mxGeometry>
        </mxCell>
        <mxCell id="zeGIx0DeRolgVq0zqXq3-17" value="Maximum &#xa;Acceleration" style="edgeLabel;align=center;verticalAlign=middle;resizable=0;points=[];" parent="zeGIx0DeRolgVq0zqXq3-16" vertex="1" connectable="0">
          <mxGeometry x="-0.4575" relative="1" as="geometry">
            <mxPoint x="-23.74" y="-14.259999999999998" as="offset" />
          </mxGeometry>
        </mxCell>
        <mxCell id="zeGIx0DeRolgVq0zqXq3-19" value="" style="endArrow=classic;endFill=0;" parent="1" edge="1">
          <mxGeometry width="50" height="50" relative="1" as="geometry">
            <mxPoint x="410" y="410" as="sourcePoint" />
            <mxPoint x="433" y="393" as="targetPoint" />
          </mxGeometry>
        </mxCell>
        <mxCell id="zeGIx0DeRolgVq0zqXq3-20" value="Maximum &#xa;DecelerationÂ " style="edgeLabel;align=center;verticalAlign=middle;resizable=0;points=[];" parent="zeGIx0DeRolgVq0zqXq3-19" vertex="1" connectable="0">
          <mxGeometry x="-0.4575" relative="1" as="geometry">
            <mxPoint x="-21.419999999999998" y="17.42" as="offset" />
          </mxGeometry>
        </mxCell>
        <mxCell id="zeGIx0DeRolgVq0zqXq3-22" value="" style="endArrow=classic;endFill=0;" parent="1" edge="1">
          <mxGeometry width="50" height="50" relative="1" as="geometry">
            <mxPoint x="530" y="340" as="sourcePoint" />
            <mxPoint x="512" y="325" as="targetPoint" />
          </mxGeometry>
        </mxCell>
        <mxCell id="zeGIx0DeRolgVq0zqXq3-23" value="Maximum &#xa;Cornering" style="edgeLabel;align=center;verticalAlign=middle;resizable=0;points=[];" parent="zeGIx0DeRolgVq0zqXq3-22" vertex="1" connectable="0">
          <mxGeometry x="-0.4575" relative="1" as="geometry">
            <mxPoint x="24.830000000000002" y="17.42" as="offset" />
          </mxGeometry>
        </mxCell>
      </root>
    </mxGraphModel>
  </diagram>
  <diagram id="X77Ue-ZlXGN9faTH996L" name="CAV network">
    <mxGraphModel dx="431" dy="216" grid="0" gridSize="10" guides="1" tooltips="1" connect="1" arrows="1" fold="1" page="1" pageScale="1" pageWidth="850" pageHeight="1100" math="0" shadow="0">
      <root>
        <mxCell id="i4RcE1fr88npL_jNl3nU-0" />
        <mxCell id="i4RcE1fr88npL_jNl3nU-1" parent="i4RcE1fr88npL_jNl3nU-0" />
        <mxCell id="KYlF_QpYy4DrjIpC-7zn-132" value="" style="shape=image;verticalLabelPosition=bottom;labelBackgroundColor=#ffffff;verticalAlign=top;aspect=fixed;imageAspect=0;image=data:image/svg+xml,PHN2ZyB4bWxucz0iaHR0cDovL3d3dy53My5vcmcvMjAwMC9zdmciIHhtbG5zOnhsaW5rPSJodHRwOi8vd3d3LnczLm9yZy8xOTk5L3hsaW5rIiB3aWR0aD0iMTE1NS4yMDU5MzI2MTcxODc1IiBoZWlnaHQ9IjI2MC43MzkzMTg4NDc2NTYyNSIgb3ZlcmZsb3c9ImhpZGRlbiIgdmlld0JveD0iMTcuMzk1NjQ4OTU2Mjk4ODI4IDEuNTgxNjgwMjk3ODUxNTYyNSAxMTU1LjIwNTkzMjYxNzE4NzUgMjYwLjczOTMxODg0NzY1NjI1Ij48ZGVmcz48Y2xpcFBhdGggaWQ9ImNsaXAwIj48cmVjdCB4PSIxNyIgeT0iMTkwIiB3aWR0aD0iMTE5MCIgaGVpZ2h0PSIzMTAiLz48L2NsaXBQYXRoPjxjbGlwUGF0aCBpZD0iY2xpcDEiPjxyZWN0IHg9IjE4IiB5PSIxOTEiIHdpZHRoPSIxMTg4IiBoZWlnaHQ9IjMwOCIvPjwvY2xpcFBhdGg+PGNsaXBQYXRoIGlkPSJjbGlwMiI+PHJlY3QgeD0iMTgiIHk9IjE5MSIgd2lkdGg9IjExODgiIGhlaWdodD0iMzA4Ii8+PC9jbGlwUGF0aD48Y2xpcFBhdGggaWQ9ImNsaXAzIj48cmVjdCB4PSIxOCIgeT0iMTkxIiB3aWR0aD0iMTE4OCIgaGVpZ2h0PSIzMDgiLz48L2NsaXBQYXRoPjwvZGVmcz48ZyBjbGlwLXBhdGg9InVybCgjY2xpcDApIiB0cmFuc2Zvcm09InRyYW5zbGF0ZSgtMTcgLTE5MCkiPjxnIGNsaXAtcGF0aD0idXJsKCNjbGlwMSkiPjxnIGNsaXAtcGF0aD0idXJsKCNjbGlwMikiPjxnIGNsaXAtcGF0aD0idXJsKCNjbGlwMykiPjxwYXRoIGQ9Ik00NDQuNzg2IDI1OC4wNyAzNC4yMjIyIDI1OC4wN0MxMS40MDc0IDI1OC4wNyA4LjU2Njk2IDI1MC41MjkgMjUuNzAwOSAyMzUuNDQ5TDI2OC44MTYgMjEuNDkxNkMyODUuOTQ5IDYuNDEwOTYgMzA1LjkyNC0xLjEyOTMzIDMyOC43MzktMS4xMjkzM0wxMTQ5Ljg3LTEuMTI5MzNDMTE3Mi42OC0xLjEyOTMzIDExNzUuNTIgNi40MTA5NiAxMTU4LjM5IDIxLjQ5MTZMOTE1LjI3MyAyMzUuNDQ5Qzg5OC4xMzkgMjUwLjUyOSA4NzguMTY1IDI1OC4wNyA4NTUuMzUgMjU4LjA3WiIgc3Ryb2tlPSIjMzYzOTNEIiBzdHJva2Utd2lkdGg9IjMuNDIyMjIiIHN0cm9rZS1taXRlcmxpbWl0PSIxMCIgZmlsbD0iI0NERUI4QiIgdHJhbnNmb3JtPSJtYXRyaXgoMS4wMDA0MSAwIDAgMSAxOS43MTE4IDE5Mi43MTEpIi8+PHBhdGggZD0iTTgyLjIwMTggMTg4LjQ5NiAyODEuNjQ5IDExLjE5MDcgMTE2NS45OSAxMS4xOTA3IDk2Ni41MzggMTg4LjQ5NloiIGZpbGw9IiM4MDgwODAiIHRyYW5zZm9ybT0ibWF0cml4KDEuMDAwNDEgMCAwIDEgMTkuNzExOCAxOTIuNzExKSIvPjxwYXRoIGQ9Ik0yODQuMDQ0IDEzLjU1MiAxMTYyLjU2IDEzLjk2MjciIHN0cm9rZT0iI0ZGOTkzMyIgc3Ryb2tlLXdpZHRoPSIxMC4yNjY3IiBzdHJva2UtbWl0ZXJsaW1pdD0iMTAiIGZpbGw9Im5vbmUiIHRyYW5zZm9ybT0ibWF0cml4KDEuMDAwNDEgMCAwIDEgMTkuNzExOCAxOTIuNzExKSIvPjxwYXRoIGQ9Ik0xOTMuMTE2IDY1LjA5MDcgODE3LjEyNCA2NS41MDEzIiBzdHJva2U9IiNGRkZGRkYiIHN0cm9rZS13aWR0aD0iMTAuMjY2NyIgc3Ryb2tlLW1pdGVybGltaXQ9IjEwIiBzdHJva2UtZGFzaGFycmF5PSIzMC44IDMwLjgiIGZpbGw9Im5vbmUiIHRyYW5zZm9ybT0ibWF0cml4KDEuMDAwNDEgMCAwIDEgMTkuNzExOCAxOTIuNzExKSIvPjxwYXRoIGQ9Ik0xNDcuMTIxIDExNi42MjkgNDU5LjM2NSAxMTYuNjI5IiBzdHJva2U9IiNGRkZGRkYiIHN0cm9rZS13aWR0aD0iMTAuMjY2NyIgc3Ryb2tlLW1pdGVybGltaXQ9IjEwIiBmaWxsPSJub25lIiB0cmFuc2Zvcm09Im1hdHJpeCgxLjAwMDQxIDAgMCAxIDE5LjcxMTggMTkyLjcxMSkiLz48cGF0aCBkPSJNNDkxLjAyIDExOC45NTYgNzMwLjY3OSAxMTkuNzc4IiBzdHJva2U9IiNGRkZGRkYiIHN0cm9rZS13aWR0aD0iMTAuMjY2NyIgc3Ryb2tlLW1pdGVybGltaXQ9IjEwIiBzdHJva2UtZGFzaGFycmF5PSIzMC44IDMwLjgiIGZpbGw9Im5vbmUiIHRyYW5zZm9ybT0ibWF0cml4KDEuMDAwNDEgMCAwIDEgMTkuNzExOCAxOTIuNzExKSIvPjxwYXRoIGQ9Ik03MjMuODM0IDExOS43NzggMTA2OS40OCAxMTguOTU2IiBzdHJva2U9IiNGRkZGRkYiIHN0cm9rZS13aWR0aD0iMTAuMjY2NyIgc3Ryb2tlLW1pdGVybGltaXQ9IjEwIiBmaWxsPSJub25lIiB0cmFuc2Zvcm09Im1hdHJpeCgxLjAwMDQxIDAgMCAxIDE5LjcxMTggMTkyLjcxMSkiLz48cGF0aCBkPSJNNzAzLjQwNCA4OS4yNTE2IDcyMi42MDIgODkuMjUxNiIgc3Ryb2tlPSIjRkZGRkZGIiBzdHJva2Utd2lkdGg9IjMuNDIyMjIiIHN0cm9rZS1taXRlcmxpbWl0PSIxMCIgZmlsbD0ibm9uZSIgdHJhbnNmb3JtPSJtYXRyaXgoMS4wMDA0MSAwIDAgMSAxOS43MTE4IDE5Mi43MTEpIi8+PHBhdGggZD0iTTczMi44NjkgODkuMjUxNiA3MjIuNjAyIDkyLjY3MzggNzIyLjYwMiA4NS44MjkzWiIgc3Ryb2tlPSIjRkZGRkZGIiBzdHJva2Utd2lkdGg9IjMuNDIyMjIiIHN0cm9rZS1taXRlcmxpbWl0PSIxMCIgZmlsbD0iI0ZGRkZGRiIgdHJhbnNmb3JtPSJtYXRyaXgoMS4wMDA0MSAwIDAgMSAxOS43MTE4IDE5Mi43MTEpIi8+PHBhdGggZD0iTTc1OC41MzYgMzcuNDczMyA3NzcuNyAzNy40NzMzIiBzdHJva2U9IiNGRkZGRkYiIHN0cm9rZS13aWR0aD0iMy40MjIyMiIgc3Ryb2tlLW1pdGVybGltaXQ9IjEwIiBmaWxsPSJub25lIiB0cmFuc2Zvcm09Im1hdHJpeCgxLjAwMDQxIDAgMCAxIDE5LjcxMTggMTkyLjcxMSkiLz48cGF0aCBkPSJNNzg3Ljk2NyAzNy40NzMzIDc3Ny43IDQwLjg5NTYgNzc3LjcgMzQuMDUxMVoiIHN0cm9rZT0iI0ZGRkZGRiIgc3Ryb2tlLXdpZHRoPSIzLjQyMjIyIiBzdHJva2UtbWl0ZXJsaW1pdD0iMTAiIGZpbGw9IiNGRkZGRkYiIHRyYW5zZm9ybT0ibWF0cml4KDEuMDAwNDEgMCAwIDEgMTkuNzExOCAxOTIuNzExKSIvPjxwYXRoIGQ9Ik00MDAuNDM0IDM3LjA2MjcgNDE5LjU5OSAzNy4wNjI3IiBzdHJva2U9IiNGRkZGRkYiIHN0cm9rZS13aWR0aD0iMy40MjIyMiIgc3Ryb2tlLW1pdGVybGltaXQ9IjEwIiBmaWxsPSJub25lIiB0cmFuc2Zvcm09Im1hdHJpeCgxLjAwMDQxIDAgMCAxIDE5LjcxMTggMTkyLjcxMSkiLz48cGF0aCBkPSJNNDI5Ljg2NSAzNy4wNjI3IDQxOS41OTkgNDAuNDg0OSA0MTkuNTk5IDMzLjY0MDRaIiBzdHJva2U9IiNGRkZGRkYiIHN0cm9rZS13aWR0aD0iMy40MjIyMiIgc3Ryb2tlLW1pdGVybGltaXQ9IjEwIiBmaWxsPSIjRkZGRkZGIiB0cmFuc2Zvcm09Im1hdHJpeCgxLjAwMDQxIDAgMCAxIDE5LjcxMTggMTkyLjcxMSkiLz48cGF0aCBkPSJNODMwLjk4NCA2NS4wOTA3IDExMTYuNjQgNjUuMDkwNyIgc3Ryb2tlPSIjRkZGRkZGIiBzdHJva2Utd2lkdGg9IjEwLjI2NjciIHN0cm9rZS1taXRlcmxpbWl0PSIxMCIgZmlsbD0ibm9uZSIgdHJhbnNmb3JtPSJtYXRyaXgoMS4wMDA0MSAwIDAgMSAxOS43MTE4IDE5Mi43MTEpIi8+PHBhdGggZD0iTTczMC4zMDIgMTc4LjAyNCA3NjIuMyAxOTUuNjQ4Qzc4Mi4yODYgMjA2LjY2OCA3OTIuMjU2IDIxOS43ODcgNzkyLjIxIDIzNS4wMDRMNzkyLjE0MiAyNTcuNzk2IiBzdHJva2U9IiM4MDgwODAiIHN0cm9rZS13aWR0aD0iODUuNTU1NiIgc3Ryb2tlLW1pdGVybGltaXQ9IjEwIiBmaWxsPSJub25lIiB0cmFuc2Zvcm09Im1hdHJpeCgxLjAwMDQxIDAgMCAxIDE5LjcxMTggMTkyLjcxMSkiLz48cGF0aCBkPSJNNjE0LjMyMyAxNzguMDI0IDY1OC40MzYgMTk4LjA0NEM2NzkuMjIgMjA3LjQ2NyA2OTUuMjU5IDIyMC4wODMgNzA2LjU1MiAyMzUuODk0TDcyMy40OTIgMjU5LjYxIiBzdHJva2U9IiM4MDgwODAiIHN0cm9rZS13aWR0aD0iMTcuMTExMSIgc3Ryb2tlLW1pdGVybGltaXQ9IjEwIiBmaWxsPSJub25lIiB0cmFuc2Zvcm09Im1hdHJpeCgxLjAwMDQxIDAgMCAxIDE5LjcxMTggMTkyLjcxMSkiLz48cGF0aCBkPSJNNjk2LjQ1NiAxNzEuMTExIDcyOC40NTQgMTg4LjczNkM3NDguNDQgMTk5Ljc1NSA3NTguNDEgMjEyLjg3NCA3NTguMzY0IDIyOC4wOTFMNzU4LjI5NiAyNTAuODgzIiBzdHJva2U9IiM4MDgwODAiIHN0cm9rZS13aWR0aD0iMTcuMTExMSIgc3Ryb2tlLW1pdGVybGltaXQ9IjEwIiBmaWxsPSJub25lIiB0cmFuc2Zvcm09Im1hdHJpeCgxLjAwMDQxIDAgMCAxIDE5LjcxMTggMTkyLjcxMSkiLz48cGF0aCBkPSJNNzcxLjc0NSAxNDAuMzExIDc5Ny40MTIgMTYwLjg0NEM4MTQuNTIzIDE3NC41MzMgODI1LjkzMSAxODkuMzYzIDgzMS42MzQgMjA1LjMzM0w4MzUuOTEyIDIxNy4zMTFDODM4Ljc2NCAyMjUuMjk2IDg0MC4wOTkgMjM0LjI2MyA4MzkuOTE2IDI0NC4yMUw4MzkuNjQyIDI1OS4wOTYiIHN0cm9rZT0iIzgwODA4MCIgc3Ryb2tlLXdpZHRoPSIxNy4xMTExIiBzdHJva2UtbWl0ZXJsaW1pdD0iMTAiIGZpbGw9Im5vbmUiIHRyYW5zZm9ybT0ibWF0cml4KDEuMDAwNDEgMCAwIDEgMTkuNzExOCAxOTIuNzExKSIvPjxwYXRoIGQ9Ik03OTUuNzAxIDE2NC4yNjcgODE0LjcyOCAxODguMzU5QzgyNy4zOTEgMjA0LjQyMSA4MzMuNjk5IDIyMC4wNiA4MzMuNjUzIDIzNS4yNzhMODMzLjU4NSAyNTguMDciIHN0cm9rZT0iI0ZGRkZGRiIgc3Ryb2tlLXdpZHRoPSIxMC4yNjY3IiBzdHJva2UtbWl0ZXJsaW1pdD0iMTAiIGZpbGw9Im5vbmUiIHRyYW5zZm9ybT0ibWF0cml4KDEuMDAwNDEgMCAwIDEgMTkuNzExOCAxOTIuNzExKSIvPjxwYXRoIGQ9Ik03MDMuMzAxIDExOS43NzggNzM1LjgxMiAxMzAuMDQ0Qzc1Ny40ODYgMTM2Ljg4OSA3NzMuNDU2IDE0NC44NzQgNzgzLjcyMyAxNTRMNzk5LjEyMyAxNjcuNjg5IiBzdHJva2U9IiNGRkZGRkYiIHN0cm9rZS13aWR0aD0iMTAuMjY2NyIgc3Ryb2tlLW1pdGVybGltaXQ9IjEwIiBmaWxsPSJub25lIiB0cmFuc2Zvcm09Im1hdHJpeCgxLjAwMDQxIDAgMCAxIDE5LjcxMTggMTkyLjcxMSkiLz48cGF0aCBkPSJNMzQ3LjM5IDkyLjEyNjIgMzg3LjgwNiA5Mi4zMzE2IiBzdHJva2U9IiNGRkZGRkYiIHN0cm9rZS13aWR0aD0iMy40MjIyMiIgc3Ryb2tlLW1pdGVybGltaXQ9IjEwIiBmaWxsPSJub25lIiB0cmFuc2Zvcm09Im1hdHJpeCgxLjAwMDQxIDAgMCAxIDE5LjcxMTggMTkyLjcxMSkiLz48cGF0aCBkPSJNMzk4LjA3MyA5Mi4zNjU4IDM4Ny44MDYgOTUuNzUzOCAzODcuODQgODguOTA5M1oiIHN0cm9rZT0iI0ZGRkZGRiIgc3Ryb2tlLXdpZHRoPSIzLjQyMjIyIiBzdHJva2UtbWl0ZXJsaW1pdD0iMTAiIGZpbGw9IiNGRkZGRkYiIHRyYW5zZm9ybT0ibWF0cml4KDEuMDAwNDEgMCAwIDEgMTkuNzExOCAxOTIuNzExKSIvPjxwYXRoIGQ9Ik02NjQuODY5IDE3OC4yOTggNjk2LjU1OSAxOTUuODg4QzcxNi40OTkgMjA2Ljk3NiA3MjYuNTE1IDIyMC4xMTcgNzI2LjYwNiAyMzUuMzEyTDcyNi43MDkgMjU4LjA3IiBzdHJva2U9IiM4MDgwODAiIHN0cm9rZS13aWR0aD0iMTcuMTExMSIgc3Ryb2tlLW1pdGVybGltaXQ9IjEwIiBmaWxsPSJub25lIiB0cmFuc2Zvcm09Im1hdHJpeCgxLjAwMDQxIDAgMCAxIDE5LjcxMTggMTkyLjcxMSkiLz48cGF0aCBkPSJNNDMxLjk4NyAxMTYuNjI5QzQ1Mi4zMTUgMTE2LjYyOSA0ODIuNjU5IDEyMy40MjggNTIzLjAxOCAxMzcuMDI2IDU2My4zNTUgMTUwLjYyMyA2MDUuMTk3IDE2NS45NzggNjQ4LjU0NSAxODMuMDg5IDY5MS44OTMgMjAwLjIgNzE4LjQ1IDIyNC40MTggNzI4LjIxNSAyNTUuNzQzIiBzdHJva2U9IiNGRkZGRkYiIHN0cm9rZS13aWR0aD0iMTAuMjY2NyIgc3Ryb2tlLW1pdGVybGltaXQ9IjEwIiBmaWxsPSJub25lIiB0cmFuc2Zvcm09Im1hdHJpeCgxLjAwMDQxIDAgMCAxIDE5LjcxMTggMTkyLjcxMSkiLz48cGF0aCBkPSJNMzY0LjUwMSA5Mi40IDM4MC4xNzUgMTAyLjE1MyIgc3Ryb2tlPSIjRkZGRkZGIiBzdHJva2Utd2lkdGg9IjMuNDIyMjIiIHN0cm9rZS1taXRlcmxpbWl0PSIxMCIgZmlsbD0ibm9uZSIgdHJhbnNmb3JtPSJtYXRyaXgoMS4wMDA0MSAwIDAgMSAxOS43MTE4IDE5Mi43MTEpIi8+PHBhdGggZD0iTTM4OC45MDEgMTA3LjU2IDM3OC4zOTUgMTA1LjA2MiAzODEuOTg4IDk5LjI0NDRaIiBzdHJva2U9IiNGRkZGRkYiIHN0cm9rZS13aWR0aD0iMy40MjIyMiIgc3Ryb2tlLW1pdGVybGltaXQ9IjEwIiBmaWxsPSIjRkZGRkZGIiB0cmFuc2Zvcm09Im1hdHJpeCgxLjAwMDQxIDAgMCAxIDE5LjcxMTggMTkyLjcxMSkiLz48cGF0aCBkPSJNNzMyLjM1NiAyMjkuMjg5IDc1Mi44ODkgMjI5LjI4OSA3NTIuODg5IDI1Ni42NjcgNzMyLjM1NiAyNTYuNjY3WiIgZmlsbD0iIzgwODA4MCIgdHJhbnNmb3JtPSJtYXRyaXgoMS4wMDA0MSAwIDAgMSAxOS43MTE4IDE5Mi43MTEpIi8+PHBhdGggZD0iTTY5MC45MTIgMTc2Ljg5NSA3MjIuOTEgMTk0LjUxOUM3NDIuODk2IDIwNS41MzkgNzUyLjg2NiAyMTguNjU3IDc1Mi44MiAyMzMuODc1TDc1Mi43NTIgMjU2LjY2NyIgc3Ryb2tlPSIjODA4MDgwIiBzdHJva2Utd2lkdGg9IjE3LjExMTEiIHN0cm9rZS1taXRlcmxpbWl0PSIxMCIgZmlsbD0ibm9uZSIgdHJhbnNmb3JtPSJtYXRyaXgoMS4wMDA0MSAwIDAgMSAxOS43MTE4IDE5Mi43MTEpIi8+PC9nPjwvZz48L2c+PHBhdGggZD0iTTQ4MyAzNzkgNjc0LjI0IDIxMyAxMTgyIDIxMyA5OTAuNzYgMzc5WiIgZmlsbD0iIzFCQTFFMiIgZmlsbC1ydWxlPSJldmVub2RkIiBmaWxsLW9wYWNpdHk9IjAuNzAxOTYxIi8+PHBhdGggZD0iTTY1NS45NzMgMzc3LjUyMSA4NDUuNTUyIDM3OC41NjMgODUxLjUzOSAzNzguMDQyIDg2MS4wMTggNDAwLjQzOCA4NjUuNTA4IDQwOS44MTMgODY3LjUwMyA0MjMuODc1IDg2OSA0MzcuNDE3IDg2OSA0NTIgNzMzLjMwMiA0NTAuOTU4IDcwOS4zNTUgNDE2LjA2MyA2OTguMzc5IDQwNy43MjkgNjg2LjQwNiAzOTguMzU0IDY3Mi40MzcgMzkyLjEwNCA2NTQuNDc3IDM4My43NzEgNjQ2Ljk5MyAzODAuMTI1IDY0NCAzNzcgNjU1Ljk3MyAzNzcuNTIxWiIgZmlsbD0iIzFCQTFFMiIgZmlsbC1ydWxlPSJldmVub2RkIiBmaWxsLW9wYWNpdHk9IjAuNjk4MDM5Ii8+PC9nPjwvc3ZnPg==;" vertex="1" parent="i4RcE1fr88npL_jNl3nU-1">
          <mxGeometry x="274" y="471" width="343" height="77.18" as="geometry" />
        </mxCell>
        <mxCell id="Za7xxilf6f-1Jp0edNZU-95" value="" style="rounded=1;align=center;verticalAlign=middle;fontSize=9;fontStyle=0;strokeColor=#666666;fontColor=#333333;fillColor=#f5f5f5;" parent="i4RcE1fr88npL_jNl3nU-1" vertex="1">
          <mxGeometry x="501.38" y="388.00000000000006" width="101.7" height="46.81" as="geometry" />
        </mxCell>
        <mxCell id="Za7xxilf6f-1Jp0edNZU-69" value="" style="shape=image;verticalAlign=top;verticalLabelPosition=bottom;labelBackgroundColor=#ffffff;imageAspect=0;aspect=fixed;image=https://cdn0.iconfinder.com/data/icons/isometric-city-basic-transport/480/car-police-front-01-128.png;strokeColor=#FF33FF;strokeWidth=3;fillColor=none;gradientColor=#ffffff;rotation=-30;" parent="i4RcE1fr88npL_jNl3nU-1" vertex="1">
          <mxGeometry x="614.32" y="15" width="38" height="38" as="geometry" />
        </mxCell>
        <mxCell id="Za7xxilf6f-1Jp0edNZU-73" value="" style="points=[];aspect=fixed;align=center;shadow=0;dashed=0;image;image=img/lib/allied_telesis/security/POE_DVS_Camera.svg;strokeColor=#FF33FF;strokeWidth=3;fillColor=none;gradientColor=#ffffff;" parent="i4RcE1fr88npL_jNl3nU-1" vertex="1">
          <mxGeometry x="291" y="42" width="31" height="24.44" as="geometry" />
        </mxCell>
        <mxCell id="Za7xxilf6f-1Jp0edNZU-82" value="" style="group;fillColor=#ffffff;" parent="i4RcE1fr88npL_jNl3nU-1" vertex="1" connectable="0">
          <mxGeometry x="343.68" y="390" width="101.70000000000003" height="51.42" as="geometry" />
        </mxCell>
        <mxCell id="Za7xxilf6f-1Jp0edNZU-81" value="" style="rounded=1;align=center;verticalAlign=middle;fontSize=9;fontStyle=0;strokeColor=#666666;fontColor=#333333;fillColor=#99FF99;" parent="Za7xxilf6f-1Jp0edNZU-82" vertex="1">
          <mxGeometry x="-2.68" width="101.70000000000003" height="51.41999999999999" as="geometry" />
        </mxCell>
        <mxCell id="Za7xxilf6f-1Jp0edNZU-80" value="" style="aspect=fixed;perimeter=ellipsePerimeter;align=center;shadow=0;dashed=0;spacingTop=3;image;image=img/lib/active_directory/database_server.svg;strokeColor=#FF33FF;strokeWidth=3;fillColor=none;gradientColor=#ffffff;" parent="Za7xxilf6f-1Jp0edNZU-82" vertex="1">
          <mxGeometry x="58.616347358997324" y="7.818835060207233" width="29.51862223466815" height="35.998319798375796" as="geometry" />
        </mxCell>
        <mxCell id="Za7xxilf6f-1Jp0edNZU-84" value="Shared &#xa;Database &#xa;Server" style="text;resizable=0;autosize=1;align=left;verticalAlign=middle;points=[];fillColor=none;strokeColor=none;rounded=0;fontSize=10;" parent="Za7xxilf6f-1Jp0edNZU-82" vertex="1">
          <mxGeometry x="-5.1514348342607263e-14" y="2.0023522822738844" width="53" height="37" as="geometry" />
        </mxCell>
        <mxCell id="Za7xxilf6f-1Jp0edNZU-87" value="" style="shape=image;verticalAlign=top;verticalLabelPosition=bottom;labelBackgroundColor=#ffffff;imageAspect=0;aspect=fixed;image=https://cdn2.iconfinder.com/data/icons/flat-ui-4/100/Antenna-128.png;strokeColor=#FF33FF;strokeWidth=3;fillColor=none;gradientColor=#ffffff;rotation=0;" parent="i4RcE1fr88npL_jNl3nU-1" vertex="1">
          <mxGeometry x="385.99999999999994" y="362" width="29.68" height="29.68" as="geometry" />
        </mxCell>
        <mxCell id="Za7xxilf6f-1Jp0edNZU-101" value="" style="shape=image;html=1;verticalAlign=top;verticalLabelPosition=bottom;labelBackgroundColor=#ffffff;imageAspect=0;aspect=fixed;image=https://cdn1.iconfinder.com/data/icons/line-free/24/Wireless_antenna-128.png;strokeColor=#000000;strokeWidth=3;fillColor=#ffffff;gradientColor=#ffffff;fontSize=10;opacity=70;align=left;" parent="i4RcE1fr88npL_jNl3nU-1" vertex="1">
          <mxGeometry x="449.54" y="47.14999999999998" width="29.7" height="29.7" as="geometry" />
        </mxCell>
        <mxCell id="Za7xxilf6f-1Jp0edNZU-99" value="" style="rounded=1;align=center;verticalAlign=middle;fontSize=9;fontStyle=0;strokeColor=#666666;fontColor=#333333;fillColor=none;" parent="i4RcE1fr88npL_jNl3nU-1" vertex="1">
          <mxGeometry x="383.32" y="36.289999999999964" width="101.7" height="51.42" as="geometry" />
        </mxCell>
        <mxCell id="Za7xxilf6f-1Jp0edNZU-98" value="Base &#xa;Station" style="text;resizable=0;autosize=1;align=left;verticalAlign=middle;points=[];fillColor=none;strokeColor=none;rounded=0;fontSize=10;" parent="i4RcE1fr88npL_jNl3nU-1" vertex="1">
          <mxGeometry x="389.54080629301865" y="36.29235228227378" width="50" height="30" as="geometry" />
        </mxCell>
        <mxCell id="Za7xxilf6f-1Jp0edNZU-103" value="" style="endArrow=blockThin;dashed=1;fontSize=10;exitX=0.74;exitY=0.097;exitDx=0;exitDy=0;exitPerimeter=0;startArrow=blockThin;startFill=0;endFill=0;" parent="i4RcE1fr88npL_jNl3nU-1" source="KYlF_QpYy4DrjIpC-7zn-146" edge="1">
          <mxGeometry width="50" height="50" relative="1" as="geometry">
            <mxPoint x="392.7797408217666" y="495.31547086625847" as="sourcePoint" />
            <mxPoint x="378" y="441" as="targetPoint" />
          </mxGeometry>
        </mxCell>
        <mxCell id="Za7xxilf6f-1Jp0edNZU-104" value="" style="endArrow=block;dashed=1;fontSize=10;entryX=0;entryY=0.5;entryDx=0;entryDy=0;exitX=0.994;exitY=0.568;exitDx=0;exitDy=0;exitPerimeter=0;startArrow=block;startFill=0;endFill=0;" parent="i4RcE1fr88npL_jNl3nU-1" source="Za7xxilf6f-1Jp0edNZU-81" target="Za7xxilf6f-1Jp0edNZU-95" edge="1">
          <mxGeometry width="50" height="50" relative="1" as="geometry">
            <mxPoint x="406.30474636141776" y="489.7486553315996" as="sourcePoint" />
            <mxPoint x="397.7868000000001" y="443.54585999999995" as="targetPoint" />
          </mxGeometry>
        </mxCell>
        <mxCell id="Za7xxilf6f-1Jp0edNZU-96" value="Road Side&#xa;Friction Measurement &#xa;Unit" style="text;resizable=0;autosize=1;align=left;verticalAlign=middle;points=[];fillColor=none;strokeColor=none;rounded=0;fontSize=9;" parent="i4RcE1fr88npL_jNl3nU-1" vertex="1">
          <mxGeometry x="503.41999999999996" y="391.88235228227387" width="97" height="37" as="geometry" />
        </mxCell>
        <mxCell id="Za7xxilf6f-1Jp0edNZU-105" value="" style="endArrow=blockThin;dashed=1;fontSize=10;entryX=0.596;entryY=1.027;entryDx=0;entryDy=0;entryPerimeter=0;startArrow=none;startFill=0;endFill=0;exitX=0.84;exitY=0.22;exitDx=0;exitDy=0;exitPerimeter=0;" parent="i4RcE1fr88npL_jNl3nU-1" target="Za7xxilf6f-1Jp0edNZU-95" edge="1" source="KYlF_QpYy4DrjIpC-7zn-132">
          <mxGeometry width="50" height="50" relative="1" as="geometry">
            <mxPoint x="506.98288" y="501.97368000000006" as="sourcePoint" />
            <mxPoint x="431.7868000000001" y="443.54585999999995" as="targetPoint" />
          </mxGeometry>
        </mxCell>
        <mxCell id="Za7xxilf6f-1Jp0edNZU-106" value="" style="outlineConnect=0;dashed=0;verticalLabelPosition=bottom;verticalAlign=top;align=center;shape=mxgraph.aws3.sensor;fillColor=#5294CF;gradientColor=none;strokeColor=#000000;strokeWidth=3;fontSize=10;opacity=70;" parent="i4RcE1fr88npL_jNl3nU-1" vertex="1">
          <mxGeometry x="572.77" y="415.69" width="18.5" height="17" as="geometry" />
        </mxCell>
        <mxCell id="KYlF_QpYy4DrjIpC-7zn-17" value="" style="endArrow=blockThin;dashed=1;fontSize=10;entryX=0.611;entryY=0.99;entryDx=0;entryDy=0;startArrow=blockThin;startFill=0;endFill=0;exitX=0.684;exitY=0.031;exitDx=0;exitDy=0;exitPerimeter=0;entryPerimeter=0;" edge="1" parent="i4RcE1fr88npL_jNl3nU-1" source="KYlF_QpYy4DrjIpC-7zn-140" target="Za7xxilf6f-1Jp0edNZU-81">
          <mxGeometry width="50" height="50" relative="1" as="geometry">
            <mxPoint x="441.5050000000001" y="522" as="sourcePoint" />
            <mxPoint x="396.7868000000001" y="453.54586000000006" as="targetPoint" />
          </mxGeometry>
        </mxCell>
        <mxCell id="KYlF_QpYy4DrjIpC-7zn-27" value="" style="rounded=1;align=center;verticalAlign=middle;fontSize=9;fontStyle=0;strokeColor=#666666;fontColor=#333333;fillColor=#f5f5f5;" vertex="1" parent="i4RcE1fr88npL_jNl3nU-1">
          <mxGeometry x="476.46" y="857.19" width="101.7" height="46.81" as="geometry" />
        </mxCell>
        <mxCell id="KYlF_QpYy4DrjIpC-7zn-28" value="" style="group;" vertex="1" connectable="0" parent="i4RcE1fr88npL_jNl3nU-1">
          <mxGeometry x="225.99999999999997" y="922.54" width="377.08" height="136.19" as="geometry" />
        </mxCell>
        <mxCell id="KYlF_QpYy4DrjIpC-7zn-29" value="" style="shape=parallelogram;perimeter=parallelogramPerimeter;fixedSize=1;fillColor=#cdeb8b;fontFamily=Times New Roman;size=86.05630602959147;labelBorderColor=none;strokeColor=#36393d;rounded=1;" vertex="1" parent="KYlF_QpYy4DrjIpC-7zn-28">
          <mxGeometry x="23" y="21.13" width="346" height="75.74" as="geometry" />
        </mxCell>
        <mxCell id="KYlF_QpYy4DrjIpC-7zn-30" value="" style="shape=parallelogram;perimeter=parallelogramPerimeter;fixedSize=1;fontFamily=Times New Roman;size=58.28668294270827;labelBorderColor=none;fontColor=#ffffff;fillColor=#808080;strokeColor=none;" vertex="1" parent="KYlF_QpYy4DrjIpC-7zn-28">
          <mxGeometry x="47.015333971250165" y="24.729839822924625" width="316.69871269933407" height="51.80876689832449" as="geometry" />
        </mxCell>
        <mxCell id="KYlF_QpYy4DrjIpC-7zn-31" value="" style="endArrow=none;exitX=0.14;exitY=0.207;exitDx=0;exitDy=0;exitPerimeter=0;entryX=0.962;entryY=0.209;entryDx=0;entryDy=0;entryPerimeter=0;strokeWidth=3;fillColor=#ffff88;strokeColor=#FF9933;" edge="1" parent="KYlF_QpYy4DrjIpC-7zn-28">
          <mxGeometry width="50" height="50" relative="1" as="geometry">
            <mxPoint x="106" y="25.42382330540762" as="sourcePoint" />
            <mxPoint x="362.71335841956727" y="25.543820449352673" as="targetPoint" />
            <Array as="points" />
          </mxGeometry>
        </mxCell>
        <mxCell id="KYlF_QpYy4DrjIpC-7zn-32" value="" style="endArrow=none;exitX=0.14;exitY=0.207;exitDx=0;exitDy=0;exitPerimeter=0;entryX=0.962;entryY=0.209;entryDx=0;entryDy=0;entryPerimeter=0;strokeWidth=3;fillColor=#ffff88;strokeColor=#FFFFFF;dashed=1;rounded=1;" edge="1" parent="KYlF_QpYy4DrjIpC-7zn-28">
          <mxGeometry width="50" height="50" relative="1" as="geometry">
            <mxPoint x="79.43076004078281" y="40.477465013328455" as="sourcePoint" />
            <mxPoint x="261.767531681904" y="40.597462157273505" as="targetPoint" />
            <Array as="points" />
          </mxGeometry>
        </mxCell>
        <mxCell id="KYlF_QpYy4DrjIpC-7zn-33" value="" style="endArrow=none;exitX=0.14;exitY=0.207;exitDx=0;exitDy=0;exitPerimeter=0;entryX=0.962;entryY=0.209;entryDx=0;entryDy=0;entryPerimeter=0;strokeWidth=3;fillColor=#ffff88;strokeColor=#FFFFFF;" edge="1" parent="KYlF_QpYy4DrjIpC-7zn-28">
          <mxGeometry width="50" height="50" relative="1" as="geometry">
            <mxPoint x="65.98646207844415" y="55.539106530845444" as="sourcePoint" />
            <mxPoint x="157.2277826076612" y="55.539106530845444" as="targetPoint" />
            <Array as="points" />
          </mxGeometry>
        </mxCell>
        <mxCell id="KYlF_QpYy4DrjIpC-7zn-34" value="" style="endArrow=none;exitX=0.14;exitY=0.207;exitDx=0;exitDy=0;exitPerimeter=0;strokeWidth=3;fillColor=#ffff88;strokeColor=#FFFFFF;dashed=1;" edge="1" parent="KYlF_QpYy4DrjIpC-7zn-28">
          <mxGeometry width="50" height="50" relative="1" as="geometry">
            <mxPoint x="166.47752443660235" y="56.22309025133285" as="sourcePoint" />
            <mxPoint x="236.51000000000002" y="56.460000000000036" as="targetPoint" />
            <Array as="points" />
          </mxGeometry>
        </mxCell>
        <mxCell id="KYlF_QpYy4DrjIpC-7zn-35" value="" style="endArrow=none;entryX=0.962;entryY=0.209;entryDx=0;entryDy=0;entryPerimeter=0;strokeWidth=3;fillColor=#ffff88;strokeColor=#FFFFFF;" edge="1" parent="KYlF_QpYy4DrjIpC-7zn-28">
          <mxGeometry width="50" height="50" relative="1" as="geometry">
            <mxPoint x="234.51000000000002" y="56.460000000000036" as="sourcePoint" />
            <mxPoint x="335.5126259900908" y="56.22309025133285" as="targetPoint" />
            <Array as="points" />
          </mxGeometry>
        </mxCell>
        <mxCell id="KYlF_QpYy4DrjIpC-7zn-36" value="" style="endArrow=blockThin;strokeColor=#FFFFFF;strokeWidth=1;endFill=1;startSize=2;endSize=2;" edge="1" parent="KYlF_QpYy4DrjIpC-7zn-28">
          <mxGeometry width="50" height="50" relative="1" as="geometry">
            <mxPoint x="228.54171996063303" y="47.53929693450119" as="sourcePoint" />
            <mxPoint x="238.26634778149287" y="47.53929693450119" as="targetPoint" />
          </mxGeometry>
        </mxCell>
        <mxCell id="KYlF_QpYy4DrjIpC-7zn-37" value="" style="endArrow=blockThin;strokeColor=#FFFFFF;strokeWidth=1;endFill=1;startSize=2;endSize=2;" edge="1" parent="KYlF_QpYy4DrjIpC-7zn-28">
          <mxGeometry width="50" height="50" relative="1" as="geometry">
            <mxPoint x="244.64732440328038" y="32.41365694021331" as="sourcePoint" />
            <mxPoint x="254.37195222414016" y="32.41365694021331" as="targetPoint" />
          </mxGeometry>
        </mxCell>
        <mxCell id="KYlF_QpYy4DrjIpC-7zn-38" value="" style="endArrow=blockThin;strokeColor=#FFFFFF;strokeWidth=1;endFill=1;startSize=2;endSize=2;" edge="1" parent="KYlF_QpYy4DrjIpC-7zn-28">
          <mxGeometry width="50" height="50" relative="1" as="geometry">
            <mxPoint x="140.00546673691852" y="32.287659939070906" as="sourcePoint" />
            <mxPoint x="149.7300945577783" y="32.287659939070906" as="targetPoint" />
          </mxGeometry>
        </mxCell>
        <mxCell id="KYlF_QpYy4DrjIpC-7zn-39" value="" style="endArrow=none;exitX=0.14;exitY=0.207;exitDx=0;exitDy=0;exitPerimeter=0;entryX=0.962;entryY=0.209;entryDx=0;entryDy=0;entryPerimeter=0;strokeWidth=3;fillColor=#ffff88;strokeColor=#FFFFFF;" edge="1" parent="KYlF_QpYy4DrjIpC-7zn-28">
          <mxGeometry width="50" height="50" relative="1" as="geometry">
            <mxPoint x="265.8194599405956" y="40.477465013328285" as="sourcePoint" />
            <mxPoint x="349.28918206964215" y="40.477465013328285" as="targetPoint" />
            <Array as="points" />
          </mxGeometry>
        </mxCell>
        <mxCell id="KYlF_QpYy4DrjIpC-7zn-40" value="" style="endArrow=blockThin;dashed=1;fontSize=10;entryX=0.277;entryY=0.999;entryDx=0;entryDy=0;entryPerimeter=0;startArrow=classicThin;startFill=0;endFill=0;" edge="1" parent="KYlF_QpYy4DrjIpC-7zn-28" target="KYlF_QpYy4DrjIpC-7zn-62">
          <mxGeometry width="50" height="50" relative="1" as="geometry">
            <mxPoint x="115.51000000000002" y="27.460000000000036" as="sourcePoint" />
            <mxPoint x="162.51000000000002" y="-50" as="targetPoint" />
          </mxGeometry>
        </mxCell>
        <mxCell id="KYlF_QpYy4DrjIpC-7zn-41" value="" style="endArrow=none;strokeWidth=25;strokeColor=#808080;entryX=0.669;entryY=0.999;entryDx=0;entryDy=0;entryPerimeter=0;exitX=0.598;exitY=0.941;exitDx=0;exitDy=0;exitPerimeter=0;" edge="1" parent="KYlF_QpYy4DrjIpC-7zn-28" source="KYlF_QpYy4DrjIpC-7zn-30" target="KYlF_QpYy4DrjIpC-7zn-29">
          <mxGeometry width="50" height="50" relative="1" as="geometry">
            <mxPoint x="236.51000000000002" y="69.46000000000004" as="sourcePoint" />
            <mxPoint x="271.5100000000002" y="127.46000000000004" as="targetPoint" />
            <Array as="points">
              <mxPoint x="254.51000000000002" y="83.46000000000004" />
            </Array>
          </mxGeometry>
        </mxCell>
        <mxCell id="KYlF_QpYy4DrjIpC-7zn-42" value="" style="endArrow=none;strokeWidth=5;strokeColor=#808080;entryX=0.611;entryY=1.006;entryDx=0;entryDy=0;entryPerimeter=0;exitX=0.491;exitY=0.941;exitDx=0;exitDy=0;exitPerimeter=0;" edge="1" parent="KYlF_QpYy4DrjIpC-7zn-28" source="KYlF_QpYy4DrjIpC-7zn-30" target="KYlF_QpYy4DrjIpC-7zn-29">
          <mxGeometry width="50" height="50" relative="1" as="geometry">
            <mxPoint x="208.5111641654518" y="73.56188947424812" as="sourcePoint" />
            <mxPoint x="226.5840000000002" y="96.87425999999994" as="targetPoint" />
            <Array as="points">
              <mxPoint x="224.51000000000002" y="83.46000000000004" />
            </Array>
          </mxGeometry>
        </mxCell>
        <mxCell id="KYlF_QpYy4DrjIpC-7zn-43" value="" style="endArrow=none;strokeWidth=5;strokeColor=#808080;entryX=0.669;entryY=0.999;entryDx=0;entryDy=0;entryPerimeter=0;exitX=0.598;exitY=0.941;exitDx=0;exitDy=0;exitPerimeter=0;" edge="1" parent="KYlF_QpYy4DrjIpC-7zn-28">
          <mxGeometry width="50" height="50" relative="1" as="geometry">
            <mxPoint x="226.5111641654519" y="71.4618894742481" as="sourcePoint" />
            <mxPoint x="244.58400000000032" y="94.77425999999991" as="targetPoint" />
            <Array as="points">
              <mxPoint x="244.62000000000003" y="81.44000000000005" />
            </Array>
          </mxGeometry>
        </mxCell>
        <mxCell id="KYlF_QpYy4DrjIpC-7zn-44" value="" style="endArrow=none;strokeWidth=5;strokeColor=#808080;entryX=0.712;entryY=1.004;entryDx=0;entryDy=0;entryPerimeter=0;exitX=0.491;exitY=0.941;exitDx=0;exitDy=0;exitPerimeter=0;" edge="1" parent="KYlF_QpYy4DrjIpC-7zn-28">
          <mxGeometry width="50" height="50" relative="1" as="geometry">
            <mxPoint x="248.51440190662336" y="62.46188947424798" as="sourcePoint" />
            <mxPoint x="268.3520000000001" y="97.17295999999999" as="targetPoint" />
            <Array as="points">
              <mxPoint x="263.51" y="74.46000000000004" />
              <mxPoint x="268.51" y="88.46000000000004" />
            </Array>
          </mxGeometry>
        </mxCell>
        <mxCell id="KYlF_QpYy4DrjIpC-7zn-45" value="" style="endArrow=none;strokeWidth=3;entryX=0.669;entryY=0.999;entryDx=0;entryDy=0;entryPerimeter=0;strokeColor=#FFFFFF;" edge="1" parent="KYlF_QpYy4DrjIpC-7zn-28">
          <mxGeometry width="50" height="50" relative="1" as="geometry">
            <mxPoint x="255.51" y="69.46000000000004" as="sourcePoint" />
            <mxPoint x="266.5840000000002" y="96.87426000000016" as="targetPoint" />
            <Array as="points">
              <mxPoint x="266.62" y="83.54000000000008" />
            </Array>
          </mxGeometry>
        </mxCell>
        <mxCell id="KYlF_QpYy4DrjIpC-7zn-46" value="" style="endArrow=none;strokeWidth=3;strokeColor=#FFFFFF;" edge="1" parent="KYlF_QpYy4DrjIpC-7zn-28">
          <mxGeometry width="50" height="50" relative="1" as="geometry">
            <mxPoint x="228.51000000000002" y="56.460000000000036" as="sourcePoint" />
            <mxPoint x="256.51" y="70.46000000000004" as="targetPoint" />
            <Array as="points">
              <mxPoint x="247.51000000000002" y="62.460000000000036" />
            </Array>
          </mxGeometry>
        </mxCell>
        <mxCell id="KYlF_QpYy4DrjIpC-7zn-47" value="" style="shape=parallelogram;perimeter=parallelogramPerimeter;fixedSize=1;fontFamily=Times New Roman;size=13.858721903369485;labelBorderColor=none;fontColor=#ffffff;strokeColor=none;opacity=70;fillColor=#1BA1E2;" vertex="1" parent="KYlF_QpYy4DrjIpC-7zn-28">
          <mxGeometry x="201.51" y="41" width="131.49" height="13.39" as="geometry" />
        </mxCell>
        <mxCell id="KYlF_QpYy4DrjIpC-7zn-48" value="" style="endArrow=blockThin;strokeColor=#FFFFFF;strokeWidth=1;endFill=1;startSize=2;endSize=2;entryX=0.295;entryY=0.458;entryDx=0;entryDy=0;entryPerimeter=0;" edge="1" parent="KYlF_QpYy4DrjIpC-7zn-28" target="KYlF_QpYy4DrjIpC-7zn-30">
          <mxGeometry width="50" height="50" relative="1" as="geometry">
            <mxPoint x="124.50546673691852" y="48.377659939070895" as="sourcePoint" />
            <mxPoint x="134.23009455777836" y="48.377659939070895" as="targetPoint" />
          </mxGeometry>
        </mxCell>
        <mxCell id="KYlF_QpYy4DrjIpC-7zn-49" value="" style="endArrow=none;strokeWidth=5;strokeColor=#808080;entryX=0.669;entryY=0.999;entryDx=0;entryDy=0;entryPerimeter=0;exitX=0.598;exitY=0.941;exitDx=0;exitDy=0;exitPerimeter=0;" edge="1" parent="KYlF_QpYy4DrjIpC-7zn-28">
          <mxGeometry width="50" height="50" relative="1" as="geometry">
            <mxPoint x="217.28116416545188" y="73.561889474248" as="sourcePoint" />
            <mxPoint x="235.3540000000003" y="96.87425999999994" as="targetPoint" />
            <Array as="points">
              <mxPoint x="235.28" y="83.56000000000006" />
            </Array>
          </mxGeometry>
        </mxCell>
        <mxCell id="KYlF_QpYy4DrjIpC-7zn-50" value="" style="endArrow=none;strokeColor=#FFFFFF;strokeWidth=3;curved=1;endFill=0;entryX=0.615;entryY=0.991;entryDx=0;entryDy=0;entryPerimeter=0;" edge="1" parent="KYlF_QpYy4DrjIpC-7zn-28" target="KYlF_QpYy4DrjIpC-7zn-29">
          <mxGeometry width="50" height="50" relative="1" as="geometry">
            <mxPoint x="149.2277826076612" y="55.539106530845444" as="sourcePoint" />
            <mxPoint x="221.51000000000002" y="95.46000000000004" as="targetPoint" />
            <Array as="points">
              <mxPoint x="158.14202477678268" y="55.539106530845444" />
              <mxPoint x="193.51000000000002" y="67.46000000000004" />
              <mxPoint x="231.51000000000002" y="82.46000000000004" />
            </Array>
          </mxGeometry>
        </mxCell>
        <mxCell id="KYlF_QpYy4DrjIpC-7zn-51" value="" style="shape=image;verticalAlign=top;verticalLabelPosition=bottom;labelBackgroundColor=#ffffff;imageAspect=0;aspect=fixed;image=https://cdn1.iconfinder.com/data/icons/computer-hardware-cute-style-vol-2/52/signal__device__technology__radar__satellite__antenna__tower-128.png;strokeColor=#FF33FF;strokeWidth=3;fillColor=none;gradientColor=#ffffff;rotation=0;" vertex="1" parent="KYlF_QpYy4DrjIpC-7zn-28">
          <mxGeometry x="105.30000000000001" y="28.460000000000036" width="15.889088967575413" height="15.889088967575413" as="geometry" />
        </mxCell>
        <mxCell id="KYlF_QpYy4DrjIpC-7zn-52" value="" style="shape=image;verticalAlign=top;verticalLabelPosition=bottom;labelBackgroundColor=#ffffff;imageAspect=0;aspect=fixed;image=https://cdn0.iconfinder.com/data/icons/isometric-city-basic-transport/480/car-front-02-128.png;strokeColor=#FF33FF;strokeWidth=3;fillColor=none;gradientColor=#ffffff;rotation=-30;" vertex="1" parent="KYlF_QpYy4DrjIpC-7zn-28">
          <mxGeometry x="98.51000000000002" y="31.460000000000036" width="29.47" height="29.47" as="geometry" />
        </mxCell>
        <mxCell id="KYlF_QpYy4DrjIpC-7zn-56" value="" style="group;" vertex="1" connectable="0" parent="KYlF_QpYy4DrjIpC-7zn-28">
          <mxGeometry x="181.51" y="24.730000000000004" width="41.12" height="47.86" as="geometry" />
        </mxCell>
        <mxCell id="KYlF_QpYy4DrjIpC-7zn-57" value="" style="shape=image;verticalAlign=top;verticalLabelPosition=bottom;labelBackgroundColor=#ffffff;imageAspect=0;aspect=fixed;image=https://cdn1.iconfinder.com/data/icons/computer-hardware-line-vol-2/52/signal__device__technology__radar__satellite__antenna__tower-128.png;strokeColor=#FF33FF;strokeWidth=3;fillColor=none;gradientColor=#ffffff;" vertex="1" parent="KYlF_QpYy4DrjIpC-7zn-56">
          <mxGeometry x="10.76" y="7.18" width="15.82" height="15.82" as="geometry" />
        </mxCell>
        <mxCell id="KYlF_QpYy4DrjIpC-7zn-58" value="" style="shape=image;verticalAlign=top;verticalLabelPosition=bottom;labelBackgroundColor=#ffffff;imageAspect=0;aspect=fixed;image=https://cdn0.iconfinder.com/data/icons/isometric-city-basic-transport/480/car-taxi-front-01-128.png;strokeColor=#FF33FF;strokeWidth=3;fillColor=none;gradientColor=#ffffff;rotation=-30;" vertex="1" parent="KYlF_QpYy4DrjIpC-7zn-56">
          <mxGeometry x="5.509035396383914" y="6.9744010318359235" width="30.10192920723228" height="30.10192920723228" as="geometry" />
        </mxCell>
        <mxCell id="KYlF_QpYy4DrjIpC-7zn-59" value="" style="shape=image;verticalAlign=top;verticalLabelPosition=bottom;labelBackgroundColor=#ffffff;imageAspect=0;aspect=fixed;image=https://cdn1.iconfinder.com/data/icons/computer-hardware-line-vol-2/52/signal__device__technology__radar__satellite__antenna__tower-128.png;fillColor=#99CCFF;fontFamily=Times New Roman;fontSize=8;fontColor=#6666FF;" vertex="1" parent="KYlF_QpYy4DrjIpC-7zn-28">
          <mxGeometry x="226.08" y="57.460000000000036" width="15" height="15" as="geometry" />
        </mxCell>
        <mxCell id="KYlF_QpYy4DrjIpC-7zn-60" value="" style="shape=image;verticalAlign=top;verticalLabelPosition=bottom;labelBackgroundColor=#ffffff;imageAspect=0;aspect=fixed;image=https://cdn0.iconfinder.com/data/icons/isometric-city-basic-transport/480/car-front-02-128.png;strokeColor=#FF33FF;strokeWidth=3;fillColor=none;gradientColor=#ffffff;rotation=0;" vertex="1" parent="KYlF_QpYy4DrjIpC-7zn-28">
          <mxGeometry x="220.51000000000002" y="60.460000000000036" width="32.466453315679715" height="32.466453315679715" as="geometry" />
        </mxCell>
        <mxCell id="KYlF_QpYy4DrjIpC-7zn-76" value="" style="endArrow=classicThin;fillColor=#dae8fc;strokeColor=#6666FF;endFill=1;exitX=0.471;exitY=0.836;exitDx=0;exitDy=0;exitPerimeter=0;" edge="1" parent="KYlF_QpYy4DrjIpC-7zn-28" source="KYlF_QpYy4DrjIpC-7zn-29">
          <mxGeometry width="50" height="50" relative="1" as="geometry">
            <mxPoint x="152.0500000000001" y="92.93000000000018" as="sourcePoint" />
            <mxPoint x="212.00000000000003" y="75.46000000000004" as="targetPoint" />
          </mxGeometry>
        </mxCell>
        <mxCell id="KYlF_QpYy4DrjIpC-7zn-77" value="off-ramp" style="edgeLabel;align=center;verticalAlign=middle;resizable=0;points=[];fontFamily=Helvetica;fontSize=8;fontColor=#6666FF;labelBackgroundColor=none;" vertex="1" connectable="0" parent="KYlF_QpYy4DrjIpC-7zn-76">
          <mxGeometry x="-0.7544" y="-1" relative="1" as="geometry">
            <mxPoint x="-6.789999999999997" y="5.85" as="offset" />
          </mxGeometry>
        </mxCell>
        <mxCell id="KYlF_QpYy4DrjIpC-7zn-53" value="" style="group;" vertex="1" connectable="0" parent="KYlF_QpYy4DrjIpC-7zn-28">
          <mxGeometry x="284" y="79.46000000000001" width="41.12" height="47.86" as="geometry" />
        </mxCell>
        <mxCell id="KYlF_QpYy4DrjIpC-7zn-54" value="" style="shape=image;verticalAlign=top;verticalLabelPosition=bottom;labelBackgroundColor=#ffffff;imageAspect=0;aspect=fixed;image=https://cdn1.iconfinder.com/data/icons/computer-hardware-line-vol-2/52/signal__device__technology__radar__satellite__antenna__tower-128.png;strokeColor=#FF33FF;strokeWidth=3;fillColor=none;gradientColor=#ffffff;" vertex="1" parent="KYlF_QpYy4DrjIpC-7zn-53">
          <mxGeometry x="10.707349729866829" y="7.130116213510293" width="15.918259931735355" height="15.918259931735355" as="geometry" />
        </mxCell>
        <mxCell id="KYlF_QpYy4DrjIpC-7zn-55" value="" style="shape=image;verticalAlign=top;verticalLabelPosition=bottom;labelBackgroundColor=#ffffff;imageAspect=0;aspect=fixed;image=https://cdn0.iconfinder.com/data/icons/isometric-city-basic-transport/480/car-taxi-front-01-128.png;strokeColor=#FF33FF;strokeWidth=3;fillColor=none;gradientColor=#ffffff;rotation=-30;" vertex="1" parent="KYlF_QpYy4DrjIpC-7zn-53">
          <mxGeometry x="5.509035396383914" y="6.9744010318359235" width="30.10192920723228" height="30.10192920723228" as="geometry" />
        </mxCell>
        <mxCell id="KYlF_QpYy4DrjIpC-7zn-61" value="" style="group;fillColor=#ffffff;" vertex="1" connectable="0" parent="i4RcE1fr88npL_jNl3nU-1">
          <mxGeometry x="333.19" y="851" width="101.70000000000003" height="51.42" as="geometry" />
        </mxCell>
        <mxCell id="KYlF_QpYy4DrjIpC-7zn-62" value="" style="rounded=1;align=center;verticalAlign=middle;fontSize=9;fontStyle=0;strokeColor=#666666;fontColor=#333333;fillColor=#99FF99;" vertex="1" parent="KYlF_QpYy4DrjIpC-7zn-61">
          <mxGeometry x="-2.68" width="101.70000000000003" height="51.41999999999999" as="geometry" />
        </mxCell>
        <mxCell id="KYlF_QpYy4DrjIpC-7zn-63" value="" style="aspect=fixed;perimeter=ellipsePerimeter;align=center;shadow=0;dashed=0;spacingTop=3;image;image=img/lib/active_directory/database_server.svg;strokeColor=#FF33FF;strokeWidth=3;fillColor=none;gradientColor=#ffffff;" vertex="1" parent="KYlF_QpYy4DrjIpC-7zn-61">
          <mxGeometry x="58.616347358997324" y="7.818835060207233" width="29.51862223466815" height="35.998319798375796" as="geometry" />
        </mxCell>
        <mxCell id="KYlF_QpYy4DrjIpC-7zn-64" value="Shared &#xa;Database &#xa;Server" style="text;resizable=0;autosize=1;align=left;verticalAlign=middle;points=[];fillColor=none;strokeColor=none;rounded=0;fontSize=10;" vertex="1" parent="KYlF_QpYy4DrjIpC-7zn-61">
          <mxGeometry x="-5.1514348342607263e-14" y="2.0023522822738844" width="53" height="37" as="geometry" />
        </mxCell>
        <mxCell id="KYlF_QpYy4DrjIpC-7zn-65" value="" style="shape=image;verticalAlign=top;verticalLabelPosition=bottom;labelBackgroundColor=#ffffff;imageAspect=0;aspect=fixed;image=https://cdn2.iconfinder.com/data/icons/flat-ui-4/100/Antenna-128.png;strokeColor=#FF33FF;strokeWidth=3;fillColor=none;gradientColor=#ffffff;rotation=0;" vertex="1" parent="i4RcE1fr88npL_jNl3nU-1">
          <mxGeometry x="375.50999999999993" y="823" width="29.68" height="29.68" as="geometry" />
        </mxCell>
        <mxCell id="KYlF_QpYy4DrjIpC-7zn-66" value="" style="endArrow=blockThin;dashed=1;fontSize=10;entryX=0.562;entryY=1.003;entryDx=0;entryDy=0;entryPerimeter=0;exitX=0.642;exitY=-0.031;exitDx=0;exitDy=0;exitPerimeter=0;startArrow=blockThin;startFill=0;endFill=0;" edge="1" parent="i4RcE1fr88npL_jNl3nU-1" source="KYlF_QpYy4DrjIpC-7zn-58" target="KYlF_QpYy4DrjIpC-7zn-62">
          <mxGeometry width="50" height="50" relative="1" as="geometry">
            <mxPoint x="348.51" y="932.54" as="sourcePoint" />
            <mxPoint x="408.49660000000017" y="872.9802400000001" as="targetPoint" />
          </mxGeometry>
        </mxCell>
        <mxCell id="KYlF_QpYy4DrjIpC-7zn-67" value="" style="endArrow=block;dashed=1;fontSize=10;entryX=0;entryY=0.5;entryDx=0;entryDy=0;exitX=0.994;exitY=0.568;exitDx=0;exitDy=0;exitPerimeter=0;startArrow=block;startFill=0;endFill=0;" edge="1" parent="i4RcE1fr88npL_jNl3nU-1" source="KYlF_QpYy4DrjIpC-7zn-62" target="KYlF_QpYy4DrjIpC-7zn-27">
          <mxGeometry width="50" height="50" relative="1" as="geometry">
            <mxPoint x="424.30474636141776" y="947.7486553315996" as="sourcePoint" />
            <mxPoint x="415.7868000000001" y="901.54586" as="targetPoint" />
          </mxGeometry>
        </mxCell>
        <mxCell id="KYlF_QpYy4DrjIpC-7zn-68" value="Road Side&#xa;Friction Measurement &#xa;Unit" style="text;resizable=0;autosize=1;align=left;verticalAlign=middle;points=[];fillColor=none;strokeColor=none;rounded=0;fontSize=9;" vertex="1" parent="i4RcE1fr88npL_jNl3nU-1">
          <mxGeometry x="481.15999999999997" y="857.1923522822739" width="97" height="37" as="geometry" />
        </mxCell>
        <mxCell id="KYlF_QpYy4DrjIpC-7zn-69" value="" style="endArrow=blockThin;dashed=1;fontSize=10;entryX=0.226;entryY=0.989;entryDx=0;entryDy=0;entryPerimeter=0;startArrow=none;startFill=0;endFill=0;exitX=0.487;exitY=0.214;exitDx=0;exitDy=0;exitPerimeter=0;" edge="1" parent="i4RcE1fr88npL_jNl3nU-1" source="KYlF_QpYy4DrjIpC-7zn-47" target="KYlF_QpYy4DrjIpC-7zn-27">
          <mxGeometry width="50" height="50" relative="1" as="geometry">
            <mxPoint x="532.51" y="927" as="sourcePoint" />
            <mxPoint x="449.7868000000001" y="901.54586" as="targetPoint" />
          </mxGeometry>
        </mxCell>
        <mxCell id="KYlF_QpYy4DrjIpC-7zn-70" value="" style="outlineConnect=0;dashed=0;verticalLabelPosition=bottom;verticalAlign=top;align=center;shape=mxgraph.aws3.sensor;fillColor=#5294CF;gradientColor=none;strokeColor=#000000;strokeWidth=3;fontSize=10;opacity=70;" vertex="1" parent="i4RcE1fr88npL_jNl3nU-1">
          <mxGeometry x="547.51" y="881" width="18.5" height="17" as="geometry" />
        </mxCell>
        <mxCell id="KYlF_QpYy4DrjIpC-7zn-71" value="" style="endArrow=none;strokeWidth=5;strokeColor=#808080;entryX=0.669;entryY=0.999;entryDx=0;entryDy=0;entryPerimeter=0;" edge="1" parent="i4RcE1fr88npL_jNl3nU-1">
          <mxGeometry width="50" height="50" relative="1" as="geometry">
            <mxPoint x="465.5100000000002" y="1011" as="sourcePoint" />
            <mxPoint x="465.5840000000003" y="1019.3142599999999" as="targetPoint" />
            <Array as="points" />
          </mxGeometry>
        </mxCell>
        <mxCell id="KYlF_QpYy4DrjIpC-7zn-72" value="" style="endArrow=blockThin;strokeColor=#FFFFFF;strokeWidth=1;endFill=1;startSize=2;endSize=2;entryX=0.286;entryY=0.555;entryDx=0;entryDy=0;entryPerimeter=0;" edge="1" parent="i4RcE1fr88npL_jNl3nU-1" target="KYlF_QpYy4DrjIpC-7zn-30">
          <mxGeometry width="50" height="50" relative="1" as="geometry">
            <mxPoint x="355.5100000000002" y="971" as="sourcePoint" />
            <mxPoint x="361.5911658032597" y="974.9875301135282" as="targetPoint" />
          </mxGeometry>
        </mxCell>
        <mxCell id="KYlF_QpYy4DrjIpC-7zn-73" value="" style="endArrow=classicThin;entryX=0.821;entryY=0.25;entryDx=0;entryDy=0;entryPerimeter=0;fillColor=#dae8fc;strokeColor=#6666FF;endFill=1;" edge="1" parent="i4RcE1fr88npL_jNl3nU-1" target="KYlF_QpYy4DrjIpC-7zn-47">
          <mxGeometry width="50" height="50" relative="1" as="geometry">
            <mxPoint x="563.5100000000002" y="933" as="sourcePoint" />
            <mxPoint x="669.51" y="921" as="targetPoint" />
          </mxGeometry>
        </mxCell>
        <mxCell id="KYlF_QpYy4DrjIpC-7zn-74" value="low friction region" style="edgeLabel;align=center;verticalAlign=middle;resizable=0;points=[];fontFamily=Helvetica;fontSize=8;fontColor=#6666FF;" vertex="1" connectable="0" parent="KYlF_QpYy4DrjIpC-7zn-73">
          <mxGeometry x="-0.7544" y="-1" relative="1" as="geometry">
            <mxPoint x="-0.5299999999999976" y="-8.98" as="offset" />
          </mxGeometry>
        </mxCell>
        <mxCell id="KYlF_QpYy4DrjIpC-7zn-75" value="" style="endArrow=blockThin;dashed=1;fontSize=10;entryX=0.958;entryY=0.972;entryDx=0;entryDy=0;entryPerimeter=0;exitX=0.495;exitY=0;exitDx=0;exitDy=0;exitPerimeter=0;startArrow=blockThin;startFill=0;endFill=0;" edge="1" parent="i4RcE1fr88npL_jNl3nU-1" source="KYlF_QpYy4DrjIpC-7zn-59" target="KYlF_QpYy4DrjIpC-7zn-62">
          <mxGeometry width="50" height="50" relative="1" as="geometry">
            <mxPoint x="433.7797408217665" y="963.3154708662587" as="sourcePoint" />
            <mxPoint x="414.7868000000001" y="911.5458600000001" as="targetPoint" />
          </mxGeometry>
        </mxCell>
        <mxCell id="KYlF_QpYy4DrjIpC-7zn-87" value="" style="shape=parallelogram;perimeter=parallelogramPerimeter;fixedSize=1;fillColor=#cdeb8b;fontFamily=Times New Roman;size=86.05630602959147;labelBorderColor=none;strokeColor=#36393d;rounded=1;" vertex="1" parent="i4RcE1fr88npL_jNl3nU-1">
          <mxGeometry x="325" y="182.79999999999995" width="346" height="75.74" as="geometry" />
        </mxCell>
        <mxCell id="KYlF_QpYy4DrjIpC-7zn-88" value="" style="shape=parallelogram;perimeter=parallelogramPerimeter;fixedSize=1;fontFamily=Times New Roman;size=58.28668294270827;labelBorderColor=none;fontColor=#ffffff;fillColor=#808080;strokeColor=none;" vertex="1" parent="i4RcE1fr88npL_jNl3nU-1">
          <mxGeometry x="349.01533397125013" y="186.3998398229246" width="316.69871269933407" height="51.80876689832449" as="geometry" />
        </mxCell>
        <mxCell id="KYlF_QpYy4DrjIpC-7zn-89" value="" style="endArrow=none;exitX=0.14;exitY=0.207;exitDx=0;exitDy=0;exitPerimeter=0;entryX=0.962;entryY=0.209;entryDx=0;entryDy=0;entryPerimeter=0;strokeWidth=3;fillColor=#ffff88;strokeColor=#FF9933;" edge="1" parent="i4RcE1fr88npL_jNl3nU-1">
          <mxGeometry width="50" height="50" relative="1" as="geometry">
            <mxPoint x="408" y="187.09382330540757" as="sourcePoint" />
            <mxPoint x="664.7133584195672" y="187.21382044935262" as="targetPoint" />
            <Array as="points" />
          </mxGeometry>
        </mxCell>
        <mxCell id="KYlF_QpYy4DrjIpC-7zn-90" value="" style="endArrow=none;exitX=0.14;exitY=0.207;exitDx=0;exitDy=0;exitPerimeter=0;entryX=0.962;entryY=0.209;entryDx=0;entryDy=0;entryPerimeter=0;strokeWidth=3;fillColor=#ffff88;strokeColor=#FFFFFF;dashed=1;rounded=1;" edge="1" parent="i4RcE1fr88npL_jNl3nU-1">
          <mxGeometry width="50" height="50" relative="1" as="geometry">
            <mxPoint x="381.43076004078284" y="202.14746501332843" as="sourcePoint" />
            <mxPoint x="563.7675316819041" y="202.26746215727348" as="targetPoint" />
            <Array as="points" />
          </mxGeometry>
        </mxCell>
        <mxCell id="KYlF_QpYy4DrjIpC-7zn-91" value="" style="endArrow=none;exitX=0.14;exitY=0.207;exitDx=0;exitDy=0;exitPerimeter=0;entryX=0.962;entryY=0.209;entryDx=0;entryDy=0;entryPerimeter=0;strokeWidth=3;fillColor=#ffff88;strokeColor=#FFFFFF;" edge="1" parent="i4RcE1fr88npL_jNl3nU-1">
          <mxGeometry width="50" height="50" relative="1" as="geometry">
            <mxPoint x="367.9864620784441" y="217.20910653084536" as="sourcePoint" />
            <mxPoint x="459.2277826076611" y="217.20910653084536" as="targetPoint" />
            <Array as="points" />
          </mxGeometry>
        </mxCell>
        <mxCell id="KYlF_QpYy4DrjIpC-7zn-92" value="" style="endArrow=none;exitX=0.14;exitY=0.207;exitDx=0;exitDy=0;exitPerimeter=0;strokeWidth=3;fillColor=#ffff88;strokeColor=#FFFFFF;dashed=1;" edge="1" parent="i4RcE1fr88npL_jNl3nU-1">
          <mxGeometry width="50" height="50" relative="1" as="geometry">
            <mxPoint x="468.4775244366024" y="217.89309025133286" as="sourcePoint" />
            <mxPoint x="538.51" y="218.13" as="targetPoint" />
            <Array as="points" />
          </mxGeometry>
        </mxCell>
        <mxCell id="KYlF_QpYy4DrjIpC-7zn-93" value="" style="endArrow=none;entryX=0.962;entryY=0.209;entryDx=0;entryDy=0;entryPerimeter=0;strokeWidth=3;fillColor=#ffff88;strokeColor=#FFFFFF;" edge="1" parent="i4RcE1fr88npL_jNl3nU-1">
          <mxGeometry width="50" height="50" relative="1" as="geometry">
            <mxPoint x="536.51" y="218.13" as="sourcePoint" />
            <mxPoint x="637.5126259900908" y="217.89309025133286" as="targetPoint" />
            <Array as="points" />
          </mxGeometry>
        </mxCell>
        <mxCell id="KYlF_QpYy4DrjIpC-7zn-94" value="" style="endArrow=blockThin;strokeColor=#FFFFFF;strokeWidth=1;endFill=1;startSize=2;endSize=2;" edge="1" parent="i4RcE1fr88npL_jNl3nU-1">
          <mxGeometry width="50" height="50" relative="1" as="geometry">
            <mxPoint x="530.5417199606329" y="209.20929693450114" as="sourcePoint" />
            <mxPoint x="540.2663477814929" y="209.20929693450114" as="targetPoint" />
          </mxGeometry>
        </mxCell>
        <mxCell id="KYlF_QpYy4DrjIpC-7zn-95" value="" style="endArrow=blockThin;strokeColor=#FFFFFF;strokeWidth=1;endFill=1;startSize=2;endSize=2;" edge="1" parent="i4RcE1fr88npL_jNl3nU-1">
          <mxGeometry width="50" height="50" relative="1" as="geometry">
            <mxPoint x="546.6473244032804" y="194.08365694021325" as="sourcePoint" />
            <mxPoint x="556.3719522241402" y="194.08365694021325" as="targetPoint" />
          </mxGeometry>
        </mxCell>
        <mxCell id="KYlF_QpYy4DrjIpC-7zn-96" value="" style="endArrow=blockThin;strokeColor=#FFFFFF;strokeWidth=1;endFill=1;startSize=2;endSize=2;" edge="1" parent="i4RcE1fr88npL_jNl3nU-1">
          <mxGeometry width="50" height="50" relative="1" as="geometry">
            <mxPoint x="442.0054667369185" y="193.95765993907082" as="sourcePoint" />
            <mxPoint x="451.73009455777833" y="193.95765993907082" as="targetPoint" />
          </mxGeometry>
        </mxCell>
        <mxCell id="KYlF_QpYy4DrjIpC-7zn-97" value="" style="endArrow=none;exitX=0.14;exitY=0.207;exitDx=0;exitDy=0;exitPerimeter=0;entryX=0.962;entryY=0.209;entryDx=0;entryDy=0;entryPerimeter=0;strokeWidth=3;fillColor=#ffff88;strokeColor=#FFFFFF;" edge="1" parent="i4RcE1fr88npL_jNl3nU-1">
          <mxGeometry width="50" height="50" relative="1" as="geometry">
            <mxPoint x="567.8194599405956" y="202.14746501332831" as="sourcePoint" />
            <mxPoint x="651.289182069642" y="202.14746501332831" as="targetPoint" />
            <Array as="points" />
          </mxGeometry>
        </mxCell>
        <mxCell id="KYlF_QpYy4DrjIpC-7zn-98" value="" style="endArrow=none;strokeWidth=25;entryX=0.669;entryY=0.999;entryDx=0;entryDy=0;entryPerimeter=0;exitX=0.598;exitY=0.941;exitDx=0;exitDy=0;exitPerimeter=0;strokeColor=#808080;" edge="1" parent="i4RcE1fr88npL_jNl3nU-1" source="KYlF_QpYy4DrjIpC-7zn-88" target="KYlF_QpYy4DrjIpC-7zn-87">
          <mxGeometry width="50" height="50" relative="1" as="geometry">
            <mxPoint x="330.51" y="-233.40999999999997" as="sourcePoint" />
            <mxPoint x="365.5100000000002" y="-175.40999999999997" as="targetPoint" />
            <Array as="points">
              <mxPoint x="556.51" y="245.13" />
            </Array>
          </mxGeometry>
        </mxCell>
        <mxCell id="KYlF_QpYy4DrjIpC-7zn-99" value="" style="endArrow=none;strokeWidth=5;strokeColor=#808080;entryX=0.611;entryY=1.006;entryDx=0;entryDy=0;entryPerimeter=0;exitX=0.491;exitY=0.941;exitDx=0;exitDy=0;exitPerimeter=0;" edge="1" parent="i4RcE1fr88npL_jNl3nU-1" source="KYlF_QpYy4DrjIpC-7zn-88" target="KYlF_QpYy4DrjIpC-7zn-87">
          <mxGeometry width="50" height="50" relative="1" as="geometry">
            <mxPoint x="302.51116416545176" y="-229.30811052575189" as="sourcePoint" />
            <mxPoint x="320.5840000000002" y="-205.99574000000007" as="targetPoint" />
            <Array as="points">
              <mxPoint x="526.51" y="245.13" />
            </Array>
          </mxGeometry>
        </mxCell>
        <mxCell id="KYlF_QpYy4DrjIpC-7zn-100" value="" style="endArrow=none;strokeWidth=5;strokeColor=#808080;entryX=0.669;entryY=0.999;entryDx=0;entryDy=0;entryPerimeter=0;exitX=0.598;exitY=0.941;exitDx=0;exitDy=0;exitPerimeter=0;" edge="1" parent="i4RcE1fr88npL_jNl3nU-1">
          <mxGeometry width="50" height="50" relative="1" as="geometry">
            <mxPoint x="528.5111641654519" y="233.13188947424806" as="sourcePoint" />
            <mxPoint x="546.5840000000003" y="256.4442599999999" as="targetPoint" />
            <Array as="points">
              <mxPoint x="546.62" y="243.11" />
            </Array>
          </mxGeometry>
        </mxCell>
        <mxCell id="KYlF_QpYy4DrjIpC-7zn-101" value="" style="endArrow=none;strokeWidth=5;strokeColor=#808080;entryX=0.712;entryY=1.004;entryDx=0;entryDy=0;entryPerimeter=0;exitX=0.491;exitY=0.941;exitDx=0;exitDy=0;exitPerimeter=0;" edge="1" parent="i4RcE1fr88npL_jNl3nU-1">
          <mxGeometry width="50" height="50" relative="1" as="geometry">
            <mxPoint x="550.5144019066233" y="224.13188947424794" as="sourcePoint" />
            <mxPoint x="570.3520000000001" y="258.84295999999995" as="targetPoint" />
            <Array as="points">
              <mxPoint x="565.51" y="236.13" />
              <mxPoint x="570.51" y="250.13" />
            </Array>
          </mxGeometry>
        </mxCell>
        <mxCell id="KYlF_QpYy4DrjIpC-7zn-102" value="" style="endArrow=none;strokeWidth=3;entryX=0.669;entryY=0.999;entryDx=0;entryDy=0;entryPerimeter=0;strokeColor=#FFFFFF;" edge="1" parent="i4RcE1fr88npL_jNl3nU-1">
          <mxGeometry width="50" height="50" relative="1" as="geometry">
            <mxPoint x="557.51" y="231.13" as="sourcePoint" />
            <mxPoint x="568.5840000000001" y="258.5442600000001" as="targetPoint" />
            <Array as="points">
              <mxPoint x="568.62" y="245.21000000000004" />
            </Array>
          </mxGeometry>
        </mxCell>
        <mxCell id="KYlF_QpYy4DrjIpC-7zn-103" value="" style="endArrow=none;strokeWidth=3;strokeColor=#FFFFFF;" edge="1" parent="i4RcE1fr88npL_jNl3nU-1">
          <mxGeometry width="50" height="50" relative="1" as="geometry">
            <mxPoint x="530.51" y="218.13" as="sourcePoint" />
            <mxPoint x="558.51" y="232.13" as="targetPoint" />
            <Array as="points">
              <mxPoint x="549.51" y="224.13" />
            </Array>
          </mxGeometry>
        </mxCell>
        <mxCell id="KYlF_QpYy4DrjIpC-7zn-104" value="" style="endArrow=blockThin;strokeColor=#FFFFFF;strokeWidth=1;endFill=1;startSize=2;endSize=2;entryX=0.295;entryY=0.458;entryDx=0;entryDy=0;entryPerimeter=0;" edge="1" parent="i4RcE1fr88npL_jNl3nU-1" target="KYlF_QpYy4DrjIpC-7zn-88">
          <mxGeometry width="50" height="50" relative="1" as="geometry">
            <mxPoint x="426.5054667369184" y="210.04765993907085" as="sourcePoint" />
            <mxPoint x="228.23009455777836" y="-254.4923400609291" as="targetPoint" />
          </mxGeometry>
        </mxCell>
        <mxCell id="KYlF_QpYy4DrjIpC-7zn-107" value="" style="endArrow=none;strokeWidth=5;strokeColor=#808080;entryX=0.669;entryY=0.999;entryDx=0;entryDy=0;entryPerimeter=0;exitX=0.598;exitY=0.941;exitDx=0;exitDy=0;exitPerimeter=0;" edge="1" parent="i4RcE1fr88npL_jNl3nU-1">
          <mxGeometry width="50" height="50" relative="1" as="geometry">
            <mxPoint x="519.2811641654519" y="235.23188947424796" as="sourcePoint" />
            <mxPoint x="537.3540000000003" y="258.5442599999999" as="targetPoint" />
            <Array as="points">
              <mxPoint x="537.28" y="245.23000000000002" />
            </Array>
          </mxGeometry>
        </mxCell>
        <mxCell id="KYlF_QpYy4DrjIpC-7zn-109" value="" style="endArrow=none;strokeColor=#FFFFFF;strokeWidth=3;curved=1;endFill=0;entryX=0.615;entryY=0.991;entryDx=0;entryDy=0;entryPerimeter=0;" edge="1" parent="i4RcE1fr88npL_jNl3nU-1" target="KYlF_QpYy4DrjIpC-7zn-87">
          <mxGeometry width="50" height="50" relative="1" as="geometry">
            <mxPoint x="451.2277826076612" y="217.20910653084536" as="sourcePoint" />
            <mxPoint x="315.51" y="-207.40999999999997" as="targetPoint" />
            <Array as="points">
              <mxPoint x="460.14202477678265" y="217.20910653084536" />
              <mxPoint x="495.51" y="229.13" />
              <mxPoint x="533.51" y="244.13" />
            </Array>
          </mxGeometry>
        </mxCell>
        <mxCell id="KYlF_QpYy4DrjIpC-7zn-118" value="" style="endArrow=blockThin;strokeColor=#FFFFFF;strokeWidth=1;endFill=1;startSize=2;endSize=2;entryX=0.286;entryY=0.555;entryDx=0;entryDy=0;entryPerimeter=0;" edge="1" parent="i4RcE1fr88npL_jNl3nU-1" target="KYlF_QpYy4DrjIpC-7zn-88">
          <mxGeometry width="50" height="50" relative="1" as="geometry">
            <mxPoint x="431.51" y="210.13" as="sourcePoint" />
            <mxPoint x="437.5911658032597" y="214.11753011352823" as="targetPoint" />
          </mxGeometry>
        </mxCell>
        <mxCell id="KYlF_QpYy4DrjIpC-7zn-121" value="" style="rounded=0;whiteSpace=wrap;html=1;fillColor=#808080;strokeColor=none;" vertex="1" parent="i4RcE1fr88npL_jNl3nU-1">
          <mxGeometry x="539" y="250.13" width="6" height="8" as="geometry" />
        </mxCell>
        <mxCell id="KYlF_QpYy4DrjIpC-7zn-122" value="" style="endArrow=none;strokeWidth=5;strokeColor=#808080;entryX=0.669;entryY=0.999;entryDx=0;entryDy=0;entryPerimeter=0;exitX=0.598;exitY=0.941;exitDx=0;exitDy=0;exitPerimeter=0;" edge="1" parent="i4RcE1fr88npL_jNl3nU-1">
          <mxGeometry width="50" height="50" relative="1" as="geometry">
            <mxPoint x="526.8911641654519" y="234.82188947424805" as="sourcePoint" />
            <mxPoint x="544.9640000000003" y="258.13425999999987" as="targetPoint" />
            <Array as="points">
              <mxPoint x="545" y="244.8" />
            </Array>
          </mxGeometry>
        </mxCell>
        <mxCell id="KYlF_QpYy4DrjIpC-7zn-125" value="the Road shape is generated by Powerpoint and saved as svg format." style="edgeLabel;align=center;verticalAlign=middle;resizable=0;points=[];fontFamily=Helvetica;fontSize=8;fontColor=#6666FF;" vertex="1" connectable="0" parent="i4RcE1fr88npL_jNl3nU-1">
          <mxGeometry x="190.99720870893998" y="258.9981745474912" as="geometry">
            <mxPoint x="127" y="-146" as="offset" />
          </mxGeometry>
        </mxCell>
        <mxCell id="KYlF_QpYy4DrjIpC-7zn-128" value="" style="endArrow=blockThin;dashed=1;fontSize=10;entryX=0.867;entryY=1.004;entryDx=0;entryDy=0;exitX=0.25;exitY=0;exitDx=0;exitDy=0;startArrow=blockThin;startFill=0;endFill=0;entryPerimeter=0;" edge="1" parent="i4RcE1fr88npL_jNl3nU-1" source="KYlF_QpYy4DrjIpC-7zn-141" target="Za7xxilf6f-1Jp0edNZU-81">
          <mxGeometry width="50" height="50" relative="1" as="geometry">
            <mxPoint x="475.0102496625864" y="496.9960434412933" as="sourcePoint" />
            <mxPoint x="419.93860000000006" y="452.98024" as="targetPoint" />
          </mxGeometry>
        </mxCell>
        <mxCell id="KYlF_QpYy4DrjIpC-7zn-134" value="" style="group;" vertex="1" connectable="0" parent="i4RcE1fr88npL_jNl3nU-1">
          <mxGeometry x="509" y="474" width="41.12" height="47.86" as="geometry" />
        </mxCell>
        <mxCell id="KYlF_QpYy4DrjIpC-7zn-135" value="" style="shape=image;verticalAlign=top;verticalLabelPosition=bottom;labelBackgroundColor=#ffffff;imageAspect=0;aspect=fixed;image=https://cdn1.iconfinder.com/data/icons/computer-hardware-line-vol-2/52/signal__device__technology__radar__satellite__antenna__tower-128.png;strokeColor=#FF33FF;strokeWidth=3;fillColor=none;gradientColor=#ffffff;" vertex="1" parent="KYlF_QpYy4DrjIpC-7zn-134">
          <mxGeometry x="10.707349729866829" y="7.130116213510293" width="15.918259931735355" height="15.918259931735355" as="geometry" />
        </mxCell>
        <mxCell id="KYlF_QpYy4DrjIpC-7zn-136" value="" style="shape=image;verticalAlign=top;verticalLabelPosition=bottom;labelBackgroundColor=#ffffff;imageAspect=0;aspect=fixed;image=https://cdn0.iconfinder.com/data/icons/isometric-city-basic-transport/480/car-taxi-front-01-128.png;strokeColor=#FF33FF;strokeWidth=3;fillColor=none;gradientColor=#ffffff;rotation=-30;" vertex="1" parent="KYlF_QpYy4DrjIpC-7zn-134">
          <mxGeometry x="5.509035396383914" y="6.9744010318359235" width="30.10192920723228" height="30.10192920723228" as="geometry" />
        </mxCell>
        <mxCell id="KYlF_QpYy4DrjIpC-7zn-138" value="" style="group;" vertex="1" connectable="0" parent="i4RcE1fr88npL_jNl3nU-1">
          <mxGeometry x="417" y="475" width="41.12" height="47.86" as="geometry" />
        </mxCell>
        <mxCell id="KYlF_QpYy4DrjIpC-7zn-139" value="" style="shape=image;verticalAlign=top;verticalLabelPosition=bottom;labelBackgroundColor=#ffffff;imageAspect=0;aspect=fixed;image=https://cdn1.iconfinder.com/data/icons/computer-hardware-line-vol-2/52/signal__device__technology__radar__satellite__antenna__tower-128.png;strokeColor=#FF33FF;strokeWidth=3;fillColor=none;gradientColor=#ffffff;" vertex="1" parent="KYlF_QpYy4DrjIpC-7zn-138">
          <mxGeometry x="10.71" y="7" width="16.05" height="16.05" as="geometry" />
        </mxCell>
        <mxCell id="KYlF_QpYy4DrjIpC-7zn-140" value="" style="shape=image;verticalAlign=top;verticalLabelPosition=bottom;labelBackgroundColor=#ffffff;imageAspect=0;aspect=fixed;image=https://cdn0.iconfinder.com/data/icons/isometric-city-basic-transport/480/car-taxi-front-01-128.png;strokeColor=#FF33FF;strokeWidth=3;fillColor=none;gradientColor=#ffffff;rotation=-30;" vertex="1" parent="KYlF_QpYy4DrjIpC-7zn-138">
          <mxGeometry x="5.509035396383914" y="6.9744010318359235" width="30.10192920723228" height="30.10192920723228" as="geometry" />
        </mxCell>
        <mxCell id="KYlF_QpYy4DrjIpC-7zn-143" value="" style="group" vertex="1" connectable="0" parent="i4RcE1fr88npL_jNl3nU-1">
          <mxGeometry x="468.99774896200654" y="507.9977489620066" width="37.610955391666494" height="37.610955391666494" as="geometry" />
        </mxCell>
        <mxCell id="KYlF_QpYy4DrjIpC-7zn-142" value="" style="shape=image;verticalAlign=top;verticalLabelPosition=bottom;labelBackgroundColor=#ffffff;imageAspect=0;aspect=fixed;image=https://cdn1.iconfinder.com/data/icons/computer-hardware-line-vol-2/52/signal__device__technology__radar__satellite__antenna__tower-128.png;strokeColor=#FF33FF;strokeWidth=3;fillColor=none;gradientColor=#ffffff;" vertex="1" parent="KYlF_QpYy4DrjIpC-7zn-143">
          <mxGeometry x="6.332251037993444" y="0.5722510379933965" width="16.05" height="16.05" as="geometry" />
        </mxCell>
        <mxCell id="KYlF_QpYy4DrjIpC-7zn-141" value="" style="shape=image;verticalAlign=top;verticalLabelPosition=bottom;labelBackgroundColor=#ffffff;imageAspect=0;aspect=fixed;image=https://cdn0.iconfinder.com/data/icons/isometric-city-basic-transport/480/car-front-02-128.png;strokeColor=#FF33FF;strokeWidth=3;fillColor=none;gradientColor=#ffffff;rotation=10;" vertex="1" parent="KYlF_QpYy4DrjIpC-7zn-143">
          <mxGeometry x="2.5722510379933965" y="2.5722510379933965" width="32.466453315679715" height="32.466453315679715" as="geometry" />
        </mxCell>
        <mxCell id="KYlF_QpYy4DrjIpC-7zn-144" value="" style="group" vertex="1" connectable="0" parent="i4RcE1fr88npL_jNl3nU-1">
          <mxGeometry x="348.99774896200654" y="480.42774896200666" width="37.610955391666494" height="37.610955391666494" as="geometry" />
        </mxCell>
        <mxCell id="KYlF_QpYy4DrjIpC-7zn-145" value="" style="shape=image;verticalAlign=top;verticalLabelPosition=bottom;labelBackgroundColor=#ffffff;imageAspect=0;aspect=fixed;image=https://cdn1.iconfinder.com/data/icons/computer-hardware-line-vol-2/52/signal__device__technology__radar__satellite__antenna__tower-128.png;strokeColor=#FF33FF;strokeWidth=3;fillColor=none;gradientColor=#ffffff;" vertex="1" parent="KYlF_QpYy4DrjIpC-7zn-144">
          <mxGeometry x="6.332251037993444" y="0.5722510379933965" width="16.05" height="16.05" as="geometry" />
        </mxCell>
        <mxCell id="KYlF_QpYy4DrjIpC-7zn-146" value="" style="shape=image;verticalAlign=top;verticalLabelPosition=bottom;labelBackgroundColor=#ffffff;imageAspect=0;aspect=fixed;image=https://cdn0.iconfinder.com/data/icons/isometric-city-basic-transport/480/car-front-02-128.png;strokeColor=#FF33FF;strokeWidth=3;fillColor=none;gradientColor=#ffffff;rotation=-30;" vertex="1" parent="KYlF_QpYy4DrjIpC-7zn-144">
          <mxGeometry x="0.5722510379933965" y="-0.4277489620066035" width="32.466453315679715" height="32.466453315679715" as="geometry" />
        </mxCell>
        <mxCell id="KYlF_QpYy4DrjIpC-7zn-147" value="" style="endArrow=blockThin;dashed=1;fontSize=10;entryX=0.995;entryY=0.939;entryDx=0;entryDy=0;entryPerimeter=0;exitX=0.581;exitY=0.016;exitDx=0;exitDy=0;startArrow=blockThin;startFill=0;endFill=0;exitPerimeter=0;" edge="1" parent="i4RcE1fr88npL_jNl3nU-1" source="KYlF_QpYy4DrjIpC-7zn-136" target="Za7xxilf6f-1Jp0edNZU-81">
          <mxGeometry width="50" height="50" relative="1" as="geometry">
            <mxPoint x="492.6287931501055" y="519.4071840754006" as="sourcePoint" />
            <mxPoint x="450.7677" y="448.28337999999997" as="targetPoint" />
          </mxGeometry>
        </mxCell>
        <mxCell id="KYlF_QpYy4DrjIpC-7zn-148" value="" style="endArrow=classicThin;fillColor=#dae8fc;endFill=1;" edge="1" parent="i4RcE1fr88npL_jNl3nU-1">
          <mxGeometry width="50" height="50" relative="1" as="geometry">
            <mxPoint x="445" y="536" as="sourcePoint" />
            <mxPoint x="467.08" y="529" as="targetPoint" />
          </mxGeometry>
        </mxCell>
        <mxCell id="KYlF_QpYy4DrjIpC-7zn-149" value="off-ramp" style="edgeLabel;align=center;verticalAlign=middle;resizable=0;points=[];fontFamily=Helvetica;fontSize=8;labelBackgroundColor=none;" vertex="1" connectable="0" parent="KYlF_QpYy4DrjIpC-7zn-148">
          <mxGeometry x="-0.7544" y="-1" relative="1" as="geometry">
            <mxPoint x="-8.429999999999998" y="2.8899999999999997" as="offset" />
          </mxGeometry>
        </mxCell>
        <mxCell id="KYlF_QpYy4DrjIpC-7zn-150" value="low friction region(e.g. ice, snow, water)" style="edgeLabel;align=center;verticalAlign=middle;resizable=0;points=[];fontFamily=Helvetica;fontSize=8;labelBackgroundColor=none;fontColor=#1BA1E2;" vertex="1" connectable="0" parent="i4RcE1fr88npL_jNl3nU-1">
          <mxGeometry x="445.32066210470447" y="562.0012238061508" as="geometry" />
        </mxCell>
        <mxCell id="KYlF_QpYy4DrjIpC-7zn-151" value="" style="shape=parallelogram;perimeter=parallelogramPerimeter;fixedSize=1;fontFamily=Times New Roman;size=16.044270098286347;labelBorderColor=none;fontColor=#ffffff;strokeColor=none;opacity=70;fillColor=#1BA1E2;" vertex="1" parent="i4RcE1fr88npL_jNl3nU-1">
          <mxGeometry x="330.68" y="555.31" width="46.49" height="13.39" as="geometry" />
        </mxCell>
      </root>
    </mxGraphModel>
  </diagram>
  <diagram id="VXKMhtpPrfWjaBHs4lLd" name="bicycle model">
    <mxGraphModel dx="886" dy="445" grid="1" gridSize="10" guides="1" tooltips="1" connect="1" arrows="1" fold="1" page="1" pageScale="1" pageWidth="850" pageHeight="1100" math="0" shadow="0">
      <root>
        <mxCell id="LGTIWsO_x1LPyo_i8puS-0" />
        <mxCell id="LGTIWsO_x1LPyo_i8puS-1" parent="LGTIWsO_x1LPyo_i8puS-0" />
        <mxCell id="TvEvVElUqOhM5fGB6hvf-37" value="" style="rounded=1;strokeColor=#000000;strokeWidth=2;fillColor=#ffffff;gradientColor=#ffffff;fontSize=10;opacity=70;align=left;rotation=-15;" parent="LGTIWsO_x1LPyo_i8puS-1" vertex="1">
          <mxGeometry x="571.31" y="505" width="78.45" height="30" as="geometry" />
        </mxCell>
        <mxCell id="TvEvVElUqOhM5fGB6hvf-35" value="" style="rounded=1;strokeColor=#000000;strokeWidth=2;fillColor=#ffffff;gradientColor=#ffffff;fontSize=10;opacity=70;align=left;" parent="LGTIWsO_x1LPyo_i8puS-1" vertex="1">
          <mxGeometry x="280" y="505" width="78.45" height="30" as="geometry" />
        </mxCell>
        <mxCell id="TvEvVElUqOhM5fGB6hvf-36" value="" style="endArrow=none;fontSize=10;strokeWidth=2;" parent="LGTIWsO_x1LPyo_i8puS-1" edge="1">
          <mxGeometry width="50" height="50" relative="1" as="geometry">
            <mxPoint x="319" y="520" as="sourcePoint" />
            <mxPoint x="610" y="520" as="targetPoint" />
          </mxGeometry>
        </mxCell>
        <mxCell id="NIQn4FDyGwgsC7JU0NGO-1" value="" style="shape=image;verticalLabelPosition=bottom;labelBackgroundColor=#ffffff;verticalAlign=top;aspect=fixed;imageAspect=0;image=data:image/svg+xml,PHN2ZyB4bWxucz0iaHR0cDovL3d3dy53My5vcmcvMjAwMC9zdmciIHhtbG5zOnhsaW5rPSJodHRwOi8vd3d3LnczLm9yZy8xOTk5L3hsaW5rIiB3aWR0aD0iNjYuODI4MTI1IiBoZWlnaHQ9IjgyLjg5NDg5NzQ2MDkzNzUiIG92ZXJmbG93PSJoaWRkZW4iIHZpZXdCb3g9Ii0wLjg5MDYyNSAyLjAwMjE5NzI2NTYyNSA2Ni44MjgxMjUgODIuODk0ODk3NDYwOTM3NSI+PGRlZnM+PGNsaXBQYXRoIGlkPSJjbGlwMCI+PHJlY3QgeD0iNjA1IiB5PSI0NDAiIHdpZHRoPSI2NSIgaGVpZ2h0PSI2NyIvPjwvY2xpcFBhdGg+PGNsaXBQYXRoIGlkPSJjbGlwMSI+PHJlY3QgeD0iNjA1IiB5PSI0NDAiIHdpZHRoPSI2NCIgaGVpZ2h0PSI2NiIvPjwvY2xpcFBhdGg+PGNsaXBQYXRoIGlkPSJjbGlwMiI+PHJlY3QgeD0iNjA1IiB5PSI0NDAiIHdpZHRoPSI2NCIgaGVpZ2h0PSI2NiIvPjwvY2xpcFBhdGg+PGNsaXBQYXRoIGlkPSJjbGlwMyI+PHJlY3QgeD0iNjA1IiB5PSI0NDAiIHdpZHRoPSI2NCIgaGVpZ2h0PSI4MSIvPjwvY2xpcFBhdGg+PC9kZWZzPjxnIGNsaXAtcGF0aD0idXJsKCNjbGlwMCkiIHRyYW5zZm9ybT0idHJhbnNsYXRlKC02MDUgLTQ0MCkiPjxnIGNsaXAtcGF0aD0idXJsKCNjbGlwMSkiPjxnIGNsaXAtcGF0aD0idXJsKCNjbGlwMikiPjxnIGNsaXAtcGF0aD0idXJsKCNjbGlwMykiPjxwYXRoIGQ9Ik0zMiAyQzE1LjQgMiAyIDE1LjQgMiAzMiAyIDQ4LjYgMTUuNCA2MiAzMiA2MiA0OC42IDYyIDYyIDQ4LjYgNjIgMzIgNjIgMTUuNCA0OC42IDIgMzIgMlpNMzIgNTggMzIgMzIgNiAzMkM2IDE3LjYgMTcuNiA2IDMyIDZMMzIgMzIgNTggMzJDNTggNDYuNCA0Ni40IDU4IDMyIDU4WiIgdHJhbnNmb3JtPSJtYXRyaXgoMSAwIDAgMS4wMDExIDYwNSA0NDApIi8+PHRleHQgZm9udC1mYW1pbHk9IkFyaWFsLEFyaWFsX01TRm9udFNlcnZpY2Usc2Fucy1zZXJpZiIgZm9udC13ZWlnaHQ9IjcwMCIgZm9udC1zaXplPSI1IiB0cmFuc2Zvcm09Im1hdHJpeCgxIDAgMCAxLjAwMTEgNjA1IDUxOSkiPkNyZWF0ZWQgYnkgUmFobWF0IEhpZGF5YXQ8dHNwYW4gZm9udC1zaXplPSI1IiB4PSIwIiB5PSI0Ljk5NDQ4Ij5mcm9tIHRoZSBOb3VuIFByb2plY3Q8L3RzcGFuPjwvdGV4dD48L2c+PC9nPjwvZz48L2c+PC9zdmc+;" parent="LGTIWsO_x1LPyo_i8puS-1" vertex="1">
          <mxGeometry x="459" y="510.00000000000006" width="21.93" height="27.17" as="geometry" />
        </mxCell>
        <mxCell id="NIQn4FDyGwgsC7JU0NGO-3" value="" style="endArrow=classic;startArrow=none;startFill=0;strokeColor=#FF0000;fontStyle=2" parent="LGTIWsO_x1LPyo_i8puS-1" edge="1">
          <mxGeometry width="50" height="50" relative="1" as="geometry">
            <mxPoint x="470" y="520" as="sourcePoint" />
            <mxPoint x="470" y="480" as="targetPoint" />
          </mxGeometry>
        </mxCell>
        <mxCell id="NIQn4FDyGwgsC7JU0NGO-4" value="Uy" style="edgeLabel;align=center;verticalAlign=middle;resizable=0;points=[];fontFamily=Times New Roman;fontColor=#FF0000;fontStyle=2" parent="NIQn4FDyGwgsC7JU0NGO-3" vertex="1" connectable="0">
          <mxGeometry x="0.65" relative="1" as="geometry">
            <mxPoint x="13" y="-7" as="offset" />
          </mxGeometry>
        </mxCell>
        <mxCell id="NIQn4FDyGwgsC7JU0NGO-5" value="" style="endArrow=classic;startArrow=none;startFill=0;strokeColor=#FF0000;fontStyle=2" parent="LGTIWsO_x1LPyo_i8puS-1" edge="1">
          <mxGeometry width="50" height="50" relative="1" as="geometry">
            <mxPoint x="470.03" y="519.8" as="sourcePoint" />
            <mxPoint x="539.83" y="519.8" as="targetPoint" />
          </mxGeometry>
        </mxCell>
        <mxCell id="NIQn4FDyGwgsC7JU0NGO-6" value="U" style="edgeLabel;align=center;verticalAlign=middle;resizable=0;points=[];fontFamily=Times New Roman;fontStyle=2" parent="NIQn4FDyGwgsC7JU0NGO-5" vertex="1" connectable="0">
          <mxGeometry x="0.65" relative="1" as="geometry">
            <mxPoint x="-26.7" y="-25.799999999999997" as="offset" />
          </mxGeometry>
        </mxCell>
        <mxCell id="NIQn4FDyGwgsC7JU0NGO-7" value="" style="endArrow=classic;startArrow=none;startFill=0;" parent="LGTIWsO_x1LPyo_i8puS-1" edge="1">
          <mxGeometry width="50" height="50" relative="1" as="geometry">
            <mxPoint x="470" y="520" as="sourcePoint" />
            <mxPoint x="537" y="480" as="targetPoint" />
          </mxGeometry>
        </mxCell>
        <mxCell id="NIQn4FDyGwgsC7JU0NGO-8" value="Ux" style="edgeLabel;align=center;verticalAlign=middle;resizable=0;points=[];fontFamily=Times New Roman;fontColor=#FF0000;labelBackgroundColor=none;fontStyle=2" parent="NIQn4FDyGwgsC7JU0NGO-7" vertex="1" connectable="0">
          <mxGeometry x="0.65" relative="1" as="geometry">
            <mxPoint x="15.650000000000002" y="23.34" as="offset" />
          </mxGeometry>
        </mxCell>
        <mxCell id="NIQn4FDyGwgsC7JU0NGO-21" value="" style="group" parent="LGTIWsO_x1LPyo_i8puS-1" vertex="1" connectable="0">
          <mxGeometry x="319" y="470" width="69.99999999999994" height="90" as="geometry" />
        </mxCell>
        <mxCell id="NIQn4FDyGwgsC7JU0NGO-14" value="" style="endArrow=classicThin;startArrow=none;startFill=0;strokeColor=#FF0000;endFill=1;" parent="NIQn4FDyGwgsC7JU0NGO-21" edge="1">
          <mxGeometry width="50" height="50" relative="1" as="geometry">
            <mxPoint x="0.17000000000001592" y="50" as="sourcePoint" />
            <mxPoint y="-10" as="targetPoint" />
          </mxGeometry>
        </mxCell>
        <mxCell id="NIQn4FDyGwgsC7JU0NGO-15" value="Fyr" style="edgeLabel;align=center;verticalAlign=middle;resizable=0;points=[];fontFamily=Times New Roman;fontColor=#FF0000;fontStyle=2" parent="NIQn4FDyGwgsC7JU0NGO-14" vertex="1" connectable="0">
          <mxGeometry x="0.65" relative="1" as="geometry">
            <mxPoint x="13" y="-7" as="offset" />
          </mxGeometry>
        </mxCell>
        <mxCell id="NIQn4FDyGwgsC7JU0NGO-16" value="" style="endArrow=classicThin;startArrow=none;startFill=0;strokeColor=#FF0000;endFill=1;" parent="NIQn4FDyGwgsC7JU0NGO-21" edge="1">
          <mxGeometry width="50" height="50" relative="1" as="geometry">
            <mxPoint x="0.19999999999998863" y="50" as="sourcePoint" />
            <mxPoint x="91" y="50" as="targetPoint" />
          </mxGeometry>
        </mxCell>
        <mxCell id="NIQn4FDyGwgsC7JU0NGO-20" value="Fxr" style="edgeLabel;align=center;verticalAlign=middle;resizable=0;points=[];fontFamily=Times New Roman;fontColor=#FF0000;labelBackgroundColor=none;fontStyle=2" parent="NIQn4FDyGwgsC7JU0NGO-16" vertex="1" connectable="0">
          <mxGeometry x="0.6307" y="-2" relative="1" as="geometry">
            <mxPoint x="1.7300000000000004" y="-11.8" as="offset" />
          </mxGeometry>
        </mxCell>
        <mxCell id="NIQn4FDyGwgsC7JU0NGO-23" value="" style="endArrow=classicThin;startArrow=none;startFill=0;endFill=1;" parent="NIQn4FDyGwgsC7JU0NGO-21" edge="1">
          <mxGeometry width="50" height="50" relative="1" as="geometry">
            <mxPoint y="50" as="sourcePoint" />
            <mxPoint x="66" y="24" as="targetPoint" />
          </mxGeometry>
        </mxCell>
        <mxCell id="NIQn4FDyGwgsC7JU0NGO-22" value="vr" style="edgeLabel;align=center;verticalAlign=middle;resizable=0;points=[];fontFamily=Times New Roman;labelBackgroundColor=none;fontStyle=2" parent="NIQn4FDyGwgsC7JU0NGO-21" vertex="1" connectable="0">
          <mxGeometry x="62.99666666666667" y="15.999999999999886" as="geometry">
            <mxPoint x="-14" y="4" as="offset" />
          </mxGeometry>
        </mxCell>
        <mxCell id="NIQn4FDyGwgsC7JU0NGO-31" value="" style="curved=1;endArrow=classicThin;strokeColor=#000000;fontFamily=Times New Roman;fontColor=#FF0000;endFill=1;endSize=1;" parent="NIQn4FDyGwgsC7JU0NGO-21" edge="1">
          <mxGeometry width="50" height="50" relative="1" as="geometry">
            <mxPoint x="51" y="50" as="sourcePoint" />
            <mxPoint x="46" y="33" as="targetPoint" />
            <Array as="points">
              <mxPoint x="53" y="39" />
            </Array>
          </mxGeometry>
        </mxCell>
        <mxCell id="NIQn4FDyGwgsC7JU0NGO-27" value="Î±r" style="edgeLabel;align=center;verticalAlign=middle;resizable=0;points=[];fontFamily=Times New Roman;fontSize=9;labelBackgroundColor=none;fontStyle=2" parent="NIQn4FDyGwgsC7JU0NGO-21" vertex="1" connectable="0">
          <mxGeometry x="57.003203883495246" y="40.000000000000114" as="geometry" />
        </mxCell>
        <mxCell id="NIQn4FDyGwgsC7JU0NGO-32" value="" style="endArrow=none;dashed=1;strokeWidth=1;fontFamily=Times New Roman;fontSize=7;fontColor=#000000;" parent="LGTIWsO_x1LPyo_i8puS-1" edge="1">
          <mxGeometry width="50" height="50" relative="1" as="geometry">
            <mxPoint x="320" y="570" as="sourcePoint" />
            <mxPoint x="320" y="520" as="targetPoint" />
          </mxGeometry>
        </mxCell>
        <mxCell id="NIQn4FDyGwgsC7JU0NGO-33" value="" style="endArrow=none;dashed=1;strokeWidth=1;fontFamily=Times New Roman;fontSize=7;fontColor=#000000;" parent="LGTIWsO_x1LPyo_i8puS-1" edge="1">
          <mxGeometry width="50" height="50" relative="1" as="geometry">
            <mxPoint x="469.8" y="570" as="sourcePoint" />
            <mxPoint x="469.8" y="520" as="targetPoint" />
          </mxGeometry>
        </mxCell>
        <mxCell id="NIQn4FDyGwgsC7JU0NGO-34" value="" style="endArrow=none;dashed=1;strokeWidth=1;fontFamily=Times New Roman;fontSize=7;fontColor=#000000;" parent="LGTIWsO_x1LPyo_i8puS-1" edge="1">
          <mxGeometry width="50" height="50" relative="1" as="geometry">
            <mxPoint x="610.3699999999999" y="570" as="sourcePoint" />
            <mxPoint x="610.3699999999999" y="520" as="targetPoint" />
          </mxGeometry>
        </mxCell>
        <mxCell id="NIQn4FDyGwgsC7JU0NGO-35" value="" style="endArrow=classicThin;fontSize=10;strokeWidth=1;strokeColor=#3333FF;startArrow=classicThin;startFill=1;endFill=1;" parent="LGTIWsO_x1LPyo_i8puS-1" edge="1">
          <mxGeometry width="50" height="50" relative="1" as="geometry">
            <mxPoint x="320" y="565" as="sourcePoint" />
            <mxPoint x="470" y="565" as="targetPoint" />
          </mxGeometry>
        </mxCell>
        <mxCell id="NIQn4FDyGwgsC7JU0NGO-38" value="b" style="edgeLabel;align=center;verticalAlign=middle;resizable=0;points=[];fontSize=11;fontFamily=Times New Roman;fontColor=#3333FF;fontStyle=2" parent="NIQn4FDyGwgsC7JU0NGO-35" vertex="1" connectable="0">
          <mxGeometry x="0.3697" relative="1" as="geometry">
            <mxPoint x="-22.78" y="-10" as="offset" />
          </mxGeometry>
        </mxCell>
        <mxCell id="NIQn4FDyGwgsC7JU0NGO-36" value="" style="endArrow=classicThin;fontSize=10;strokeWidth=1;strokeColor=#3333FF;startArrow=classicThin;startFill=1;endFill=1;" parent="LGTIWsO_x1LPyo_i8puS-1" edge="1">
          <mxGeometry width="50" height="50" relative="1" as="geometry">
            <mxPoint x="471" y="565" as="sourcePoint" />
            <mxPoint x="610" y="565" as="targetPoint" />
          </mxGeometry>
        </mxCell>
        <mxCell id="NIQn4FDyGwgsC7JU0NGO-39" value="a" style="edgeLabel;align=center;verticalAlign=middle;resizable=0;points=[];fontSize=11;fontFamily=Times New Roman;fontColor=#3333FF;labelBackgroundColor=none;fontStyle=2" parent="NIQn4FDyGwgsC7JU0NGO-36" vertex="1" connectable="0">
          <mxGeometry x="-0.3716" y="-1" relative="1" as="geometry">
            <mxPoint x="25.39" y="-10" as="offset" />
          </mxGeometry>
        </mxCell>
        <mxCell id="NIQn4FDyGwgsC7JU0NGO-49" value="" style="group;rotation=-15;" parent="LGTIWsO_x1LPyo_i8puS-1" vertex="1" connectable="0">
          <mxGeometry x="600" y="450" width="91" height="60" as="geometry" />
        </mxCell>
        <mxCell id="NIQn4FDyGwgsC7JU0NGO-41" value="" style="endArrow=classicThin;startArrow=none;startFill=0;strokeColor=#FF0000;endFill=1;" parent="NIQn4FDyGwgsC7JU0NGO-49" edge="1">
          <mxGeometry width="50" height="50" relative="1" as="geometry">
            <mxPoint x="9" y="71" as="sourcePoint" />
            <mxPoint x="-6" y="13" as="targetPoint" />
          </mxGeometry>
        </mxCell>
        <mxCell id="NIQn4FDyGwgsC7JU0NGO-42" value="Fyf" style="edgeLabel;align=center;verticalAlign=middle;resizable=0;points=[];fontFamily=Times New Roman;fontColor=#FF0000;rotation=-15;fontStyle=2" parent="NIQn4FDyGwgsC7JU0NGO-41" vertex="1" connectable="0">
          <mxGeometry x="0.65" relative="1" as="geometry">
            <mxPoint x="13" y="-7" as="offset" />
          </mxGeometry>
        </mxCell>
        <mxCell id="NIQn4FDyGwgsC7JU0NGO-43" value="" style="endArrow=classicThin;startArrow=none;startFill=0;strokeColor=#FF0000;endFill=1;" parent="NIQn4FDyGwgsC7JU0NGO-49" edge="1">
          <mxGeometry width="50" height="50" relative="1" as="geometry">
            <mxPoint x="10" y="71" as="sourcePoint" />
            <mxPoint x="97" y="47" as="targetPoint" />
          </mxGeometry>
        </mxCell>
        <mxCell id="NIQn4FDyGwgsC7JU0NGO-44" value="Fxf" style="edgeLabel;align=center;verticalAlign=middle;resizable=0;points=[];fontFamily=Times New Roman;fontColor=#FF0000;labelBackgroundColor=none;rotation=-15;fontStyle=2" parent="NIQn4FDyGwgsC7JU0NGO-43" vertex="1" connectable="0">
          <mxGeometry x="0.6307" y="-2" relative="1" as="geometry">
            <mxPoint x="3.7300000000000004" y="-15.8" as="offset" />
          </mxGeometry>
        </mxCell>
        <mxCell id="NIQn4FDyGwgsC7JU0NGO-45" value="" style="endArrow=classicThin;startArrow=none;startFill=0;endFill=1;" parent="NIQn4FDyGwgsC7JU0NGO-49" edge="1">
          <mxGeometry width="50" height="50" relative="1" as="geometry">
            <mxPoint x="9" y="71" as="sourcePoint" />
            <mxPoint x="67" y="27" as="targetPoint" />
          </mxGeometry>
        </mxCell>
        <mxCell id="NIQn4FDyGwgsC7JU0NGO-46" value="vf" style="edgeLabel;align=center;verticalAlign=middle;resizable=0;points=[];fontFamily=Times New Roman;labelBackgroundColor=none;rotation=-15;fontStyle=2" parent="NIQn4FDyGwgsC7JU0NGO-49" vertex="1" connectable="0">
          <mxGeometry x="61" y="19" as="geometry">
            <mxPoint x="-14" y="4" as="offset" />
          </mxGeometry>
        </mxCell>
        <mxCell id="NIQn4FDyGwgsC7JU0NGO-47" value="" style="curved=1;endArrow=classicThin;strokeColor=#000000;fontFamily=Times New Roman;fontColor=#FF0000;endFill=1;endSize=1;" parent="NIQn4FDyGwgsC7JU0NGO-49" edge="1">
          <mxGeometry width="50" height="50" relative="1" as="geometry">
            <mxPoint x="61" y="56" as="sourcePoint" />
            <mxPoint x="50" y="41" as="targetPoint" />
            <Array as="points">
              <mxPoint x="59" y="47" />
            </Array>
          </mxGeometry>
        </mxCell>
        <mxCell id="NIQn4FDyGwgsC7JU0NGO-48" value="Î±f" style="edgeLabel;align=center;verticalAlign=middle;resizable=0;points=[];fontFamily=Times New Roman;fontSize=9;labelBackgroundColor=none;rotation=-15;fontStyle=2" parent="NIQn4FDyGwgsC7JU0NGO-49" vertex="1" connectable="0">
          <mxGeometry x="64" y="49" as="geometry">
            <mxPoint x="-0.8965754721680539" y="-4.381341395361314" as="offset" />
          </mxGeometry>
        </mxCell>
        <mxCell id="NIQn4FDyGwgsC7JU0NGO-50" value="" style="endArrow=none;dashed=1;strokeWidth=1;fontFamily=Times New Roman;fontSize=7;fontColor=#000000;" parent="LGTIWsO_x1LPyo_i8puS-1" edge="1">
          <mxGeometry width="50" height="50" relative="1" as="geometry">
            <mxPoint x="690" y="520" as="sourcePoint" />
            <mxPoint x="610" y="520" as="targetPoint" />
          </mxGeometry>
        </mxCell>
        <mxCell id="NIQn4FDyGwgsC7JU0NGO-52" value="Î´" style="edgeLabel;align=center;verticalAlign=middle;resizable=0;points=[];fontFamily=Times New Roman;fontSize=9;labelBackgroundColor=none;rotation=-15;fontStyle=2" parent="LGTIWsO_x1LPyo_i8puS-1" vertex="1" connectable="0">
          <mxGeometry x="680" y="516" as="geometry">
            <mxPoint x="-0.8965754721680539" y="-4.381341395361314" as="offset" />
          </mxGeometry>
        </mxCell>
        <mxCell id="NIQn4FDyGwgsC7JU0NGO-54" value="CG" style="text;resizable=0;autosize=1;align=center;verticalAlign=middle;points=[];fillColor=none;strokeColor=none;rounded=0;labelBackgroundColor=none;fontFamily=Times New Roman;fontSize=9;fontColor=#3333FF;" parent="LGTIWsO_x1LPyo_i8puS-1" vertex="1">
          <mxGeometry x="445" y="496" width="30" height="20" as="geometry" />
        </mxCell>
        <mxCell id="NIQn4FDyGwgsC7JU0NGO-55" value="" style="curved=1;endArrow=classicThin;strokeColor=#000000;fontFamily=Times New Roman;fontColor=#FF0000;endFill=1;endSize=1;" parent="LGTIWsO_x1LPyo_i8puS-1" edge="1">
          <mxGeometry width="50" height="50" relative="1" as="geometry">
            <mxPoint x="504" y="520" as="sourcePoint" />
            <mxPoint x="498" y="503" as="targetPoint" />
            <Array as="points">
              <mxPoint x="505" y="509" />
            </Array>
          </mxGeometry>
        </mxCell>
        <mxCell id="NIQn4FDyGwgsC7JU0NGO-56" value="Î²" style="edgeLabel;align=center;verticalAlign=middle;resizable=0;points=[];fontFamily=Times New Roman;fontStyle=2;fontSize=10;" parent="LGTIWsO_x1LPyo_i8puS-1" vertex="1" connectable="0">
          <mxGeometry x="512.9299029126214" y="508" as="geometry">
            <mxPoint x="-3" as="offset" />
          </mxGeometry>
        </mxCell>
        <mxCell id="NIQn4FDyGwgsC7JU0NGO-57" value="" style="curved=1;endArrow=classicThin;strokeColor=#000000;fontFamily=Times New Roman;fontColor=#FF0000;endFill=1;endSize=1;exitX=0.167;exitY=0.5;exitDx=0;exitDy=0;exitPerimeter=0;" parent="LGTIWsO_x1LPyo_i8puS-1" source="NIQn4FDyGwgsC7JU0NGO-54" edge="1">
          <mxGeometry width="50" height="50" relative="1" as="geometry">
            <mxPoint x="445.0200000000001" y="506.65999999999997" as="sourcePoint" />
            <mxPoint x="454" y="536" as="targetPoint" />
            <Array as="points">
              <mxPoint x="439" y="522" />
            </Array>
          </mxGeometry>
        </mxCell>
        <mxCell id="NIQn4FDyGwgsC7JU0NGO-60" value="r" style="edgeLabel;align=center;verticalAlign=middle;resizable=0;points=[];fontFamily=Times New Roman;fontStyle=2;fontSize=11;" parent="LGTIWsO_x1LPyo_i8puS-1" vertex="1" connectable="0">
          <mxGeometry x="442.9999029126214" y="528" as="geometry">
            <mxPoint x="-3" as="offset" />
          </mxGeometry>
        </mxCell>
        <mxCell id="-AVjoS03Gko6x326KeQo-0" value="" style="curved=1;endArrow=classicThin;strokeColor=#000000;fontFamily=Times New Roman;fontColor=#FF0000;endFill=1;endSize=1;" edge="1" parent="LGTIWsO_x1LPyo_i8puS-1">
          <mxGeometry width="50" height="50" relative="1" as="geometry">
            <mxPoint x="672" y="519" as="sourcePoint" />
            <mxPoint x="667" y="506" as="targetPoint" />
            <Array as="points">
              <mxPoint x="674" y="512" />
            </Array>
          </mxGeometry>
        </mxCell>
      </root>
    </mxGraphModel>
  </diagram>
</mxfile>
